<mxfile host="app.diagrams.net" modified="2023-11-17T18:54:01.337Z" agent="Mozilla/5.0 (Windows NT 10.0; Win64; x64) AppleWebKit/537.36 (KHTML, like Gecko) Chrome/120.0.0.0 Safari/537.36 Edg/120.0.0.0" etag="lSAC9mfeZwSHQxVZcph7" version="22.1.3" type="device" pages="4">
  <diagram name="第 1 页" id="LTfCAPMIBoal3xbA2Wrg">
    <mxGraphModel dx="802" dy="455" grid="1" gridSize="10" guides="1" tooltips="1" connect="1" arrows="1" fold="1" page="1" pageScale="1" pageWidth="827" pageHeight="1169" math="0" shadow="0">
      <root>
        <mxCell id="0" />
        <mxCell id="1" parent="0" />
        <mxCell id="tagTZnb82Xd66sR5sCrJ-1" value="" style="endArrow=none;html=1;rounded=0;dashed=1;" edge="1" parent="1">
          <mxGeometry width="50" height="50" relative="1" as="geometry">
            <mxPoint x="160" y="2210" as="sourcePoint" />
            <mxPoint x="160" y="180" as="targetPoint" />
          </mxGeometry>
        </mxCell>
        <mxCell id="tagTZnb82Xd66sR5sCrJ-2" value="学生" style="shape=umlActor;verticalLabelPosition=bottom;verticalAlign=top;html=1;outlineConnect=0;fontSize=18;" vertex="1" parent="1">
          <mxGeometry x="140" y="80" width="30" height="60" as="geometry" />
        </mxCell>
        <mxCell id="tagTZnb82Xd66sR5sCrJ-3" value="" style="endArrow=none;html=1;rounded=0;dashed=1;" edge="1" parent="1">
          <mxGeometry width="50" height="50" relative="1" as="geometry">
            <mxPoint x="320" y="2210" as="sourcePoint" />
            <mxPoint x="320" y="180" as="targetPoint" />
          </mxGeometry>
        </mxCell>
        <mxCell id="tagTZnb82Xd66sR5sCrJ-4" value="&lt;font style=&quot;font-size: 20px;&quot;&gt;注册界面&lt;/font&gt;" style="rounded=0;whiteSpace=wrap;html=1;" vertex="1" parent="1">
          <mxGeometry x="260" y="100" width="120" height="60" as="geometry" />
        </mxCell>
        <mxCell id="tagTZnb82Xd66sR5sCrJ-5" value="&lt;font style=&quot;font-size: 20px;&quot;&gt;注册处理&lt;/font&gt;" style="rounded=0;whiteSpace=wrap;html=1;" vertex="1" parent="1">
          <mxGeometry x="440" y="100" width="120" height="60" as="geometry" />
        </mxCell>
        <mxCell id="tagTZnb82Xd66sR5sCrJ-6" value="" style="endArrow=none;html=1;rounded=0;dashed=1;" edge="1" parent="1" source="tagTZnb82Xd66sR5sCrJ-17">
          <mxGeometry width="50" height="50" relative="1" as="geometry">
            <mxPoint x="499.40999999999997" y="2210" as="sourcePoint" />
            <mxPoint x="499.40999999999997" y="180" as="targetPoint" />
          </mxGeometry>
        </mxCell>
        <mxCell id="tagTZnb82Xd66sR5sCrJ-7" value="&lt;font style=&quot;font-size: 20px;&quot;&gt;学生名册数据库&lt;/font&gt;" style="rounded=0;whiteSpace=wrap;html=1;" vertex="1" parent="1">
          <mxGeometry x="620" y="100" width="150" height="60" as="geometry" />
        </mxCell>
        <mxCell id="tagTZnb82Xd66sR5sCrJ-8" value="" style="endArrow=none;html=1;rounded=0;dashed=1;" edge="1" parent="1" source="tagTZnb82Xd66sR5sCrJ-20">
          <mxGeometry width="50" height="50" relative="1" as="geometry">
            <mxPoint x="694.41" y="2210" as="sourcePoint" />
            <mxPoint x="694.41" y="180" as="targetPoint" />
          </mxGeometry>
        </mxCell>
        <mxCell id="tagTZnb82Xd66sR5sCrJ-10" value="" style="rounded=0;whiteSpace=wrap;html=1;" vertex="1" parent="1">
          <mxGeometry x="310" y="220" width="20" height="80" as="geometry" />
        </mxCell>
        <mxCell id="tagTZnb82Xd66sR5sCrJ-11" value="" style="endArrow=classic;html=1;rounded=0;" edge="1" parent="1">
          <mxGeometry width="50" height="50" relative="1" as="geometry">
            <mxPoint x="160" y="220" as="sourcePoint" />
            <mxPoint x="310" y="220" as="targetPoint" />
            <Array as="points">
              <mxPoint x="310" y="220" />
            </Array>
          </mxGeometry>
        </mxCell>
        <mxCell id="tagTZnb82Xd66sR5sCrJ-12" value="&lt;font style=&quot;font-size: 15px;&quot;&gt;输入个人信息&lt;/font&gt;" style="edgeLabel;html=1;align=center;verticalAlign=middle;resizable=0;points=[];" vertex="1" connectable="0" parent="tagTZnb82Xd66sR5sCrJ-11">
          <mxGeometry x="-0.1689" y="-4" relative="1" as="geometry">
            <mxPoint as="offset" />
          </mxGeometry>
        </mxCell>
        <mxCell id="tagTZnb82Xd66sR5sCrJ-13" value="" style="endArrow=classic;html=1;rounded=0;entryX=0;entryY=0;entryDx=0;entryDy=0;" edge="1" parent="1" target="tagTZnb82Xd66sR5sCrJ-17">
          <mxGeometry width="50" height="50" relative="1" as="geometry">
            <mxPoint x="330" y="230" as="sourcePoint" />
            <mxPoint x="480" y="230" as="targetPoint" />
            <Array as="points">
              <mxPoint x="480" y="230" />
              <mxPoint x="490" y="230" />
            </Array>
          </mxGeometry>
        </mxCell>
        <mxCell id="tagTZnb82Xd66sR5sCrJ-14" value="&lt;font style=&quot;font-size: 15px;&quot;&gt;上传个人信息&lt;/font&gt;" style="edgeLabel;html=1;align=center;verticalAlign=middle;resizable=0;points=[];" vertex="1" connectable="0" parent="tagTZnb82Xd66sR5sCrJ-13">
          <mxGeometry x="-0.1689" y="-4" relative="1" as="geometry">
            <mxPoint as="offset" />
          </mxGeometry>
        </mxCell>
        <mxCell id="tagTZnb82Xd66sR5sCrJ-18" value="" style="endArrow=none;html=1;rounded=0;dashed=1;" edge="1" parent="1" target="tagTZnb82Xd66sR5sCrJ-17">
          <mxGeometry width="50" height="50" relative="1" as="geometry">
            <mxPoint x="499.40999999999997" y="2210" as="sourcePoint" />
            <mxPoint x="499.40999999999997" y="180" as="targetPoint" />
          </mxGeometry>
        </mxCell>
        <mxCell id="tagTZnb82Xd66sR5sCrJ-17" value="" style="rounded=0;whiteSpace=wrap;html=1;" vertex="1" parent="1">
          <mxGeometry x="490" y="230" width="20" height="60" as="geometry" />
        </mxCell>
        <mxCell id="tagTZnb82Xd66sR5sCrJ-21" value="" style="endArrow=none;html=1;rounded=0;dashed=1;" edge="1" parent="1" target="tagTZnb82Xd66sR5sCrJ-20">
          <mxGeometry width="50" height="50" relative="1" as="geometry">
            <mxPoint x="694.41" y="2210" as="sourcePoint" />
            <mxPoint x="694.41" y="180" as="targetPoint" />
          </mxGeometry>
        </mxCell>
        <mxCell id="tagTZnb82Xd66sR5sCrJ-20" value="" style="rounded=0;whiteSpace=wrap;html=1;" vertex="1" parent="1">
          <mxGeometry x="685" y="240" width="20" height="40" as="geometry" />
        </mxCell>
        <mxCell id="tagTZnb82Xd66sR5sCrJ-22" value="" style="endArrow=classic;html=1;rounded=0;" edge="1" parent="1">
          <mxGeometry width="50" height="50" relative="1" as="geometry">
            <mxPoint x="510" y="240" as="sourcePoint" />
            <mxPoint x="690" y="240" as="targetPoint" />
            <Array as="points">
              <mxPoint x="660" y="240" />
              <mxPoint x="670" y="240" />
              <mxPoint x="690" y="240" />
            </Array>
          </mxGeometry>
        </mxCell>
        <mxCell id="tagTZnb82Xd66sR5sCrJ-23" value="&lt;font style=&quot;font-size: 15px;&quot;&gt;提交信息&lt;/font&gt;" style="edgeLabel;html=1;align=center;verticalAlign=middle;resizable=0;points=[];" vertex="1" connectable="0" parent="tagTZnb82Xd66sR5sCrJ-22">
          <mxGeometry x="-0.1689" y="-4" relative="1" as="geometry">
            <mxPoint as="offset" />
          </mxGeometry>
        </mxCell>
        <mxCell id="tagTZnb82Xd66sR5sCrJ-26" value="" style="endArrow=classic;html=1;rounded=0;exitX=0;exitY=1;exitDx=0;exitDy=0;entryX=1.033;entryY=0.819;entryDx=0;entryDy=0;entryPerimeter=0;" edge="1" parent="1" source="tagTZnb82Xd66sR5sCrJ-20" target="tagTZnb82Xd66sR5sCrJ-17">
          <mxGeometry width="50" height="50" relative="1" as="geometry">
            <mxPoint x="540" y="330" as="sourcePoint" />
            <mxPoint x="590" y="280" as="targetPoint" />
          </mxGeometry>
        </mxCell>
        <mxCell id="tagTZnb82Xd66sR5sCrJ-27" value="&lt;font style=&quot;font-size: 15px;&quot;&gt;返回查询结果&lt;/font&gt;" style="edgeLabel;html=1;align=center;verticalAlign=middle;resizable=0;points=[];" vertex="1" connectable="0" parent="tagTZnb82Xd66sR5sCrJ-26">
          <mxGeometry x="-0.0478" y="-1" relative="1" as="geometry">
            <mxPoint as="offset" />
          </mxGeometry>
        </mxCell>
        <mxCell id="tagTZnb82Xd66sR5sCrJ-28" value="" style="endArrow=classic;html=1;rounded=0;entryX=1.033;entryY=0.819;entryDx=0;entryDy=0;entryPerimeter=0;" edge="1" parent="1">
          <mxGeometry width="50" height="50" relative="1" as="geometry">
            <mxPoint x="490" y="290" as="sourcePoint" />
            <mxPoint x="330.34000000000003" y="289.86" as="targetPoint" />
          </mxGeometry>
        </mxCell>
        <mxCell id="tagTZnb82Xd66sR5sCrJ-29" value="&lt;font style=&quot;font-size: 15px;&quot;&gt;返回验证结果&lt;/font&gt;" style="edgeLabel;html=1;align=center;verticalAlign=middle;resizable=0;points=[];" vertex="1" connectable="0" parent="tagTZnb82Xd66sR5sCrJ-28">
          <mxGeometry x="-0.0478" y="-1" relative="1" as="geometry">
            <mxPoint as="offset" />
          </mxGeometry>
        </mxCell>
        <mxCell id="tagTZnb82Xd66sR5sCrJ-30" value="" style="endArrow=classic;html=1;rounded=0;entryX=1.033;entryY=0.819;entryDx=0;entryDy=0;entryPerimeter=0;" edge="1" parent="1">
          <mxGeometry width="50" height="50" relative="1" as="geometry">
            <mxPoint x="310" y="300" as="sourcePoint" />
            <mxPoint x="160.00000000000003" y="300" as="targetPoint" />
          </mxGeometry>
        </mxCell>
        <mxCell id="tagTZnb82Xd66sR5sCrJ-31" value="&lt;font style=&quot;font-size: 15px;&quot;&gt;显示验证结果&lt;/font&gt;" style="edgeLabel;html=1;align=center;verticalAlign=middle;resizable=0;points=[];" vertex="1" connectable="0" parent="tagTZnb82Xd66sR5sCrJ-30">
          <mxGeometry x="-0.0478" y="-1" relative="1" as="geometry">
            <mxPoint as="offset" />
          </mxGeometry>
        </mxCell>
        <mxCell id="tagTZnb82Xd66sR5sCrJ-32" value="" style="rounded=0;whiteSpace=wrap;html=1;" vertex="1" parent="1">
          <mxGeometry x="310" y="350" width="20" height="140" as="geometry" />
        </mxCell>
        <mxCell id="tagTZnb82Xd66sR5sCrJ-33" value="" style="endArrow=classic;html=1;rounded=0;" edge="1" parent="1">
          <mxGeometry width="50" height="50" relative="1" as="geometry">
            <mxPoint x="160" y="350" as="sourcePoint" />
            <mxPoint x="310" y="350" as="targetPoint" />
            <Array as="points">
              <mxPoint x="310" y="350" />
            </Array>
          </mxGeometry>
        </mxCell>
        <mxCell id="tagTZnb82Xd66sR5sCrJ-34" value="&lt;font style=&quot;font-size: 15px;&quot;&gt;输入密码&lt;/font&gt;" style="edgeLabel;html=1;align=center;verticalAlign=middle;resizable=0;points=[];" vertex="1" connectable="0" parent="tagTZnb82Xd66sR5sCrJ-33">
          <mxGeometry x="-0.1689" y="-4" relative="1" as="geometry">
            <mxPoint as="offset" />
          </mxGeometry>
        </mxCell>
        <mxCell id="tagTZnb82Xd66sR5sCrJ-35" value="" style="endArrow=classic;html=1;rounded=0;entryX=0;entryY=0;entryDx=0;entryDy=0;" edge="1" target="tagTZnb82Xd66sR5sCrJ-37" parent="1">
          <mxGeometry width="50" height="50" relative="1" as="geometry">
            <mxPoint x="330" y="360" as="sourcePoint" />
            <mxPoint x="480" y="360" as="targetPoint" />
            <Array as="points">
              <mxPoint x="480" y="360" />
              <mxPoint x="490" y="360" />
            </Array>
          </mxGeometry>
        </mxCell>
        <mxCell id="tagTZnb82Xd66sR5sCrJ-36" value="&lt;font style=&quot;font-size: 15px;&quot;&gt;上传密码&lt;/font&gt;" style="edgeLabel;html=1;align=center;verticalAlign=middle;resizable=0;points=[];" vertex="1" connectable="0" parent="tagTZnb82Xd66sR5sCrJ-35">
          <mxGeometry x="-0.1689" y="-4" relative="1" as="geometry">
            <mxPoint as="offset" />
          </mxGeometry>
        </mxCell>
        <mxCell id="tagTZnb82Xd66sR5sCrJ-37" value="" style="rounded=0;whiteSpace=wrap;html=1;" vertex="1" parent="1">
          <mxGeometry x="490" y="360" width="20" height="110" as="geometry" />
        </mxCell>
        <mxCell id="tagTZnb82Xd66sR5sCrJ-38" value="" style="endArrow=classic;html=1;rounded=0;entryX=1.033;entryY=0.819;entryDx=0;entryDy=0;entryPerimeter=0;" edge="1" parent="1">
          <mxGeometry width="50" height="50" relative="1" as="geometry">
            <mxPoint x="490" y="470.14" as="sourcePoint" />
            <mxPoint x="330.34000000000003" y="470" as="targetPoint" />
          </mxGeometry>
        </mxCell>
        <mxCell id="tagTZnb82Xd66sR5sCrJ-39" value="&lt;font style=&quot;font-size: 15px;&quot;&gt;返回注册结果&lt;/font&gt;" style="edgeLabel;html=1;align=center;verticalAlign=middle;resizable=0;points=[];" vertex="1" connectable="0" parent="tagTZnb82Xd66sR5sCrJ-38">
          <mxGeometry x="-0.0478" y="-1" relative="1" as="geometry">
            <mxPoint y="1" as="offset" />
          </mxGeometry>
        </mxCell>
        <mxCell id="tagTZnb82Xd66sR5sCrJ-40" value="" style="endArrow=classic;html=1;rounded=0;entryX=1.033;entryY=0.819;entryDx=0;entryDy=0;entryPerimeter=0;" edge="1" parent="1">
          <mxGeometry width="50" height="50" relative="1" as="geometry">
            <mxPoint x="310" y="490" as="sourcePoint" />
            <mxPoint x="160.00000000000003" y="490" as="targetPoint" />
          </mxGeometry>
        </mxCell>
        <mxCell id="tagTZnb82Xd66sR5sCrJ-41" value="&lt;font style=&quot;font-size: 15px;&quot;&gt;显示注册结果&lt;/font&gt;" style="edgeLabel;html=1;align=center;verticalAlign=middle;resizable=0;points=[];" vertex="1" connectable="0" parent="tagTZnb82Xd66sR5sCrJ-40">
          <mxGeometry x="-0.0478" y="-1" relative="1" as="geometry">
            <mxPoint as="offset" />
          </mxGeometry>
        </mxCell>
        <mxCell id="2AwMVmvuVuW2lR3Bvu31-1" value="" style="endArrow=classic;html=1;rounded=0;entryX=1.033;entryY=0.819;entryDx=0;entryDy=0;entryPerimeter=0;" edge="1" parent="1">
          <mxGeometry width="50" height="50" relative="1" as="geometry">
            <mxPoint x="489.66" y="380.14" as="sourcePoint" />
            <mxPoint x="330.00000000000006" y="380" as="targetPoint" />
          </mxGeometry>
        </mxCell>
        <mxCell id="2AwMVmvuVuW2lR3Bvu31-2" value="&lt;font style=&quot;font-size: 15px;&quot;&gt;返回有效性验证结果&lt;/font&gt;" style="edgeLabel;html=1;align=center;verticalAlign=middle;resizable=0;points=[];" vertex="1" connectable="0" parent="2AwMVmvuVuW2lR3Bvu31-1">
          <mxGeometry x="-0.0478" y="-1" relative="1" as="geometry">
            <mxPoint y="1" as="offset" />
          </mxGeometry>
        </mxCell>
        <mxCell id="2AwMVmvuVuW2lR3Bvu31-3" value="" style="rounded=0;whiteSpace=wrap;html=1;" vertex="1" parent="1">
          <mxGeometry x="685" y="400" width="20" height="40" as="geometry" />
        </mxCell>
        <mxCell id="2AwMVmvuVuW2lR3Bvu31-4" value="" style="endArrow=classic;html=1;rounded=0;" edge="1" parent="1">
          <mxGeometry width="50" height="50" relative="1" as="geometry">
            <mxPoint x="510" y="400" as="sourcePoint" />
            <mxPoint x="690" y="400" as="targetPoint" />
            <Array as="points">
              <mxPoint x="660" y="400" />
              <mxPoint x="670" y="400" />
              <mxPoint x="690" y="400" />
            </Array>
          </mxGeometry>
        </mxCell>
        <mxCell id="2AwMVmvuVuW2lR3Bvu31-5" value="&lt;font style=&quot;font-size: 15px;&quot;&gt;提交密码&lt;/font&gt;" style="edgeLabel;html=1;align=center;verticalAlign=middle;resizable=0;points=[];" vertex="1" connectable="0" parent="2AwMVmvuVuW2lR3Bvu31-4">
          <mxGeometry x="-0.1689" y="-4" relative="1" as="geometry">
            <mxPoint as="offset" />
          </mxGeometry>
        </mxCell>
        <mxCell id="2AwMVmvuVuW2lR3Bvu31-6" value="" style="endArrow=classic;html=1;rounded=0;exitX=0;exitY=1;exitDx=0;exitDy=0;entryX=1.033;entryY=0.819;entryDx=0;entryDy=0;entryPerimeter=0;" edge="1" source="2AwMVmvuVuW2lR3Bvu31-3" parent="1">
          <mxGeometry width="50" height="50" relative="1" as="geometry">
            <mxPoint x="540" y="490" as="sourcePoint" />
            <mxPoint x="511" y="439" as="targetPoint" />
          </mxGeometry>
        </mxCell>
        <mxCell id="2AwMVmvuVuW2lR3Bvu31-7" value="&lt;font style=&quot;font-size: 15px;&quot;&gt;返回结果&lt;/font&gt;" style="edgeLabel;html=1;align=center;verticalAlign=middle;resizable=0;points=[];" vertex="1" connectable="0" parent="2AwMVmvuVuW2lR3Bvu31-6">
          <mxGeometry x="-0.0478" y="-1" relative="1" as="geometry">
            <mxPoint as="offset" />
          </mxGeometry>
        </mxCell>
        <mxCell id="2AwMVmvuVuW2lR3Bvu31-9" value="" style="endArrow=classic;html=1;rounded=0;entryX=1.033;entryY=0.819;entryDx=0;entryDy=0;entryPerimeter=0;" edge="1" parent="1">
          <mxGeometry width="50" height="50" relative="1" as="geometry">
            <mxPoint x="310" y="400" as="sourcePoint" />
            <mxPoint x="160.00000000000003" y="400" as="targetPoint" />
          </mxGeometry>
        </mxCell>
        <mxCell id="2AwMVmvuVuW2lR3Bvu31-10" value="&lt;font style=&quot;font-size: 15px;&quot;&gt;显示有效性结果&lt;/font&gt;" style="edgeLabel;html=1;align=center;verticalAlign=middle;resizable=0;points=[];" vertex="1" connectable="0" parent="2AwMVmvuVuW2lR3Bvu31-9">
          <mxGeometry x="-0.0478" y="-1" relative="1" as="geometry">
            <mxPoint as="offset" />
          </mxGeometry>
        </mxCell>
      </root>
    </mxGraphModel>
  </diagram>
  <diagram id="jExkbJwVKyeGbfQRWPKh" name="第 2 页">
    <mxGraphModel dx="764" dy="433" grid="1" gridSize="10" guides="1" tooltips="1" connect="1" arrows="1" fold="1" page="1" pageScale="1" pageWidth="827" pageHeight="1169" math="0" shadow="0">
      <root>
        <mxCell id="0" />
        <mxCell id="1" parent="0" />
        <mxCell id="gwMRO1ygE3LlnQRY7thv-1" value="" style="endArrow=none;html=1;rounded=0;dashed=1;" edge="1" parent="1">
          <mxGeometry width="50" height="50" relative="1" as="geometry">
            <mxPoint x="160" y="2210" as="sourcePoint" />
            <mxPoint x="160" y="180" as="targetPoint" />
          </mxGeometry>
        </mxCell>
        <mxCell id="gwMRO1ygE3LlnQRY7thv-2" value="系办" style="shape=umlActor;verticalLabelPosition=bottom;verticalAlign=top;html=1;outlineConnect=0;fontSize=18;" vertex="1" parent="1">
          <mxGeometry x="140" y="80" width="30" height="60" as="geometry" />
        </mxCell>
        <mxCell id="gwMRO1ygE3LlnQRY7thv-3" value="" style="endArrow=none;html=1;rounded=0;dashed=1;" edge="1" parent="1">
          <mxGeometry width="50" height="50" relative="1" as="geometry">
            <mxPoint x="320" y="2210" as="sourcePoint" />
            <mxPoint x="320" y="180" as="targetPoint" />
          </mxGeometry>
        </mxCell>
        <mxCell id="gwMRO1ygE3LlnQRY7thv-4" value="&lt;font style=&quot;font-size: 20px;&quot;&gt;数据统计界面&lt;/font&gt;" style="rounded=0;whiteSpace=wrap;html=1;" vertex="1" parent="1">
          <mxGeometry x="250" y="100" width="140" height="60" as="geometry" />
        </mxCell>
        <mxCell id="gwMRO1ygE3LlnQRY7thv-5" value="&lt;font style=&quot;font-size: 20px;&quot;&gt;数据统计处理&lt;/font&gt;" style="rounded=0;whiteSpace=wrap;html=1;" vertex="1" parent="1">
          <mxGeometry x="430" y="100" width="140" height="60" as="geometry" />
        </mxCell>
        <mxCell id="gwMRO1ygE3LlnQRY7thv-6" value="" style="endArrow=none;html=1;rounded=0;dashed=1;" edge="1" parent="1" source="gwMRO1ygE3LlnQRY7thv-15">
          <mxGeometry width="50" height="50" relative="1" as="geometry">
            <mxPoint x="499.40999999999997" y="2210" as="sourcePoint" />
            <mxPoint x="499.40999999999997" y="180" as="targetPoint" />
          </mxGeometry>
        </mxCell>
        <mxCell id="gwMRO1ygE3LlnQRY7thv-7" value="&lt;font style=&quot;font-size: 20px;&quot;&gt;数据统计数据库&lt;/font&gt;" style="rounded=0;whiteSpace=wrap;html=1;" vertex="1" parent="1">
          <mxGeometry x="620" y="100" width="150" height="60" as="geometry" />
        </mxCell>
        <mxCell id="gwMRO1ygE3LlnQRY7thv-8" value="" style="endArrow=none;html=1;rounded=0;dashed=1;" edge="1" parent="1" source="gwMRO1ygE3LlnQRY7thv-17">
          <mxGeometry width="50" height="50" relative="1" as="geometry">
            <mxPoint x="694.41" y="2210" as="sourcePoint" />
            <mxPoint x="694.41" y="180" as="targetPoint" />
          </mxGeometry>
        </mxCell>
        <mxCell id="gwMRO1ygE3LlnQRY7thv-9" value="" style="rounded=0;whiteSpace=wrap;html=1;" vertex="1" parent="1">
          <mxGeometry x="310" y="220" width="20" height="80" as="geometry" />
        </mxCell>
        <mxCell id="gwMRO1ygE3LlnQRY7thv-10" value="" style="endArrow=classic;html=1;rounded=0;" edge="1" parent="1">
          <mxGeometry width="50" height="50" relative="1" as="geometry">
            <mxPoint x="160" y="220" as="sourcePoint" />
            <mxPoint x="310" y="220" as="targetPoint" />
            <Array as="points">
              <mxPoint x="310" y="220" />
            </Array>
          </mxGeometry>
        </mxCell>
        <mxCell id="gwMRO1ygE3LlnQRY7thv-11" value="&lt;span style=&quot;font-size: 15px;&quot;&gt;查看请求&lt;/span&gt;" style="edgeLabel;html=1;align=center;verticalAlign=middle;resizable=0;points=[];" vertex="1" connectable="0" parent="gwMRO1ygE3LlnQRY7thv-10">
          <mxGeometry x="-0.1689" y="-4" relative="1" as="geometry">
            <mxPoint as="offset" />
          </mxGeometry>
        </mxCell>
        <mxCell id="gwMRO1ygE3LlnQRY7thv-12" value="" style="endArrow=classic;html=1;rounded=0;entryX=0;entryY=0;entryDx=0;entryDy=0;" edge="1" parent="1" target="gwMRO1ygE3LlnQRY7thv-15">
          <mxGeometry width="50" height="50" relative="1" as="geometry">
            <mxPoint x="330" y="230" as="sourcePoint" />
            <mxPoint x="480" y="230" as="targetPoint" />
            <Array as="points">
              <mxPoint x="480" y="230" />
              <mxPoint x="490" y="230" />
            </Array>
          </mxGeometry>
        </mxCell>
        <mxCell id="gwMRO1ygE3LlnQRY7thv-13" value="&lt;font style=&quot;font-size: 15px;&quot;&gt;上传请求&lt;/font&gt;" style="edgeLabel;html=1;align=center;verticalAlign=middle;resizable=0;points=[];" vertex="1" connectable="0" parent="gwMRO1ygE3LlnQRY7thv-12">
          <mxGeometry x="-0.1689" y="-4" relative="1" as="geometry">
            <mxPoint as="offset" />
          </mxGeometry>
        </mxCell>
        <mxCell id="gwMRO1ygE3LlnQRY7thv-14" value="" style="endArrow=none;html=1;rounded=0;dashed=1;" edge="1" parent="1" target="gwMRO1ygE3LlnQRY7thv-15">
          <mxGeometry width="50" height="50" relative="1" as="geometry">
            <mxPoint x="499.40999999999997" y="2210" as="sourcePoint" />
            <mxPoint x="499.40999999999997" y="180" as="targetPoint" />
          </mxGeometry>
        </mxCell>
        <mxCell id="gwMRO1ygE3LlnQRY7thv-15" value="" style="rounded=0;whiteSpace=wrap;html=1;" vertex="1" parent="1">
          <mxGeometry x="490" y="230" width="20" height="60" as="geometry" />
        </mxCell>
        <mxCell id="gwMRO1ygE3LlnQRY7thv-16" value="" style="endArrow=none;html=1;rounded=0;dashed=1;" edge="1" parent="1" target="gwMRO1ygE3LlnQRY7thv-17">
          <mxGeometry width="50" height="50" relative="1" as="geometry">
            <mxPoint x="694.41" y="2210" as="sourcePoint" />
            <mxPoint x="694.41" y="180" as="targetPoint" />
          </mxGeometry>
        </mxCell>
        <mxCell id="gwMRO1ygE3LlnQRY7thv-17" value="" style="rounded=0;whiteSpace=wrap;html=1;" vertex="1" parent="1">
          <mxGeometry x="685" y="240" width="20" height="40" as="geometry" />
        </mxCell>
        <mxCell id="gwMRO1ygE3LlnQRY7thv-18" value="" style="endArrow=classic;html=1;rounded=0;" edge="1" parent="1">
          <mxGeometry width="50" height="50" relative="1" as="geometry">
            <mxPoint x="510" y="240" as="sourcePoint" />
            <mxPoint x="690" y="240" as="targetPoint" />
            <Array as="points">
              <mxPoint x="660" y="240" />
              <mxPoint x="670" y="240" />
              <mxPoint x="690" y="240" />
            </Array>
          </mxGeometry>
        </mxCell>
        <mxCell id="gwMRO1ygE3LlnQRY7thv-19" value="&lt;font style=&quot;font-size: 15px;&quot;&gt;查询数据统计类别&lt;/font&gt;" style="edgeLabel;html=1;align=center;verticalAlign=middle;resizable=0;points=[];" vertex="1" connectable="0" parent="gwMRO1ygE3LlnQRY7thv-18">
          <mxGeometry x="-0.1689" y="-4" relative="1" as="geometry">
            <mxPoint as="offset" />
          </mxGeometry>
        </mxCell>
        <mxCell id="gwMRO1ygE3LlnQRY7thv-20" value="" style="endArrow=classic;html=1;rounded=0;exitX=0;exitY=1;exitDx=0;exitDy=0;entryX=1.033;entryY=0.819;entryDx=0;entryDy=0;entryPerimeter=0;" edge="1" parent="1" source="gwMRO1ygE3LlnQRY7thv-17" target="gwMRO1ygE3LlnQRY7thv-15">
          <mxGeometry width="50" height="50" relative="1" as="geometry">
            <mxPoint x="540" y="330" as="sourcePoint" />
            <mxPoint x="590" y="280" as="targetPoint" />
          </mxGeometry>
        </mxCell>
        <mxCell id="gwMRO1ygE3LlnQRY7thv-21" value="&lt;font style=&quot;font-size: 15px;&quot;&gt;返回查询结果&lt;/font&gt;" style="edgeLabel;html=1;align=center;verticalAlign=middle;resizable=0;points=[];" vertex="1" connectable="0" parent="gwMRO1ygE3LlnQRY7thv-20">
          <mxGeometry x="-0.0478" y="-1" relative="1" as="geometry">
            <mxPoint as="offset" />
          </mxGeometry>
        </mxCell>
        <mxCell id="gwMRO1ygE3LlnQRY7thv-22" value="" style="endArrow=classic;html=1;rounded=0;entryX=1.033;entryY=0.819;entryDx=0;entryDy=0;entryPerimeter=0;" edge="1" parent="1">
          <mxGeometry width="50" height="50" relative="1" as="geometry">
            <mxPoint x="490" y="290" as="sourcePoint" />
            <mxPoint x="330.34000000000003" y="289.86" as="targetPoint" />
          </mxGeometry>
        </mxCell>
        <mxCell id="gwMRO1ygE3LlnQRY7thv-23" value="&lt;font style=&quot;font-size: 15px;&quot;&gt;返回统计类别&lt;/font&gt;" style="edgeLabel;html=1;align=center;verticalAlign=middle;resizable=0;points=[];" vertex="1" connectable="0" parent="gwMRO1ygE3LlnQRY7thv-22">
          <mxGeometry x="-0.0478" y="-1" relative="1" as="geometry">
            <mxPoint as="offset" />
          </mxGeometry>
        </mxCell>
        <mxCell id="gwMRO1ygE3LlnQRY7thv-24" value="" style="endArrow=classic;html=1;rounded=0;entryX=1.033;entryY=0.819;entryDx=0;entryDy=0;entryPerimeter=0;" edge="1" parent="1">
          <mxGeometry width="50" height="50" relative="1" as="geometry">
            <mxPoint x="310" y="300" as="sourcePoint" />
            <mxPoint x="160.00000000000003" y="300" as="targetPoint" />
          </mxGeometry>
        </mxCell>
        <mxCell id="gwMRO1ygE3LlnQRY7thv-25" value="&lt;font style=&quot;font-size: 15px;&quot;&gt;显示统计类别&lt;/font&gt;" style="edgeLabel;html=1;align=center;verticalAlign=middle;resizable=0;points=[];" vertex="1" connectable="0" parent="gwMRO1ygE3LlnQRY7thv-24">
          <mxGeometry x="-0.0478" y="-1" relative="1" as="geometry">
            <mxPoint as="offset" />
          </mxGeometry>
        </mxCell>
        <mxCell id="gwMRO1ygE3LlnQRY7thv-38" value="" style="rounded=0;whiteSpace=wrap;html=1;" vertex="1" parent="1">
          <mxGeometry x="310" y="350" width="20" height="80" as="geometry" />
        </mxCell>
        <mxCell id="gwMRO1ygE3LlnQRY7thv-39" value="" style="endArrow=classic;html=1;rounded=0;" edge="1" parent="1">
          <mxGeometry width="50" height="50" relative="1" as="geometry">
            <mxPoint x="160" y="350" as="sourcePoint" />
            <mxPoint x="310" y="350" as="targetPoint" />
            <Array as="points">
              <mxPoint x="310" y="350" />
            </Array>
          </mxGeometry>
        </mxCell>
        <mxCell id="gwMRO1ygE3LlnQRY7thv-40" value="&lt;span style=&quot;font-size: 15px;&quot;&gt;选择类别&lt;/span&gt;" style="edgeLabel;html=1;align=center;verticalAlign=middle;resizable=0;points=[];" vertex="1" connectable="0" parent="gwMRO1ygE3LlnQRY7thv-39">
          <mxGeometry x="-0.1689" y="-4" relative="1" as="geometry">
            <mxPoint as="offset" />
          </mxGeometry>
        </mxCell>
        <mxCell id="gwMRO1ygE3LlnQRY7thv-41" value="" style="endArrow=classic;html=1;rounded=0;entryX=0;entryY=0;entryDx=0;entryDy=0;" edge="1" target="gwMRO1ygE3LlnQRY7thv-43" parent="1">
          <mxGeometry width="50" height="50" relative="1" as="geometry">
            <mxPoint x="330" y="360" as="sourcePoint" />
            <mxPoint x="480" y="360" as="targetPoint" />
            <Array as="points">
              <mxPoint x="480" y="360" />
              <mxPoint x="490" y="360" />
            </Array>
          </mxGeometry>
        </mxCell>
        <mxCell id="gwMRO1ygE3LlnQRY7thv-42" value="&lt;font style=&quot;font-size: 15px;&quot;&gt;上传请求&lt;/font&gt;" style="edgeLabel;html=1;align=center;verticalAlign=middle;resizable=0;points=[];" vertex="1" connectable="0" parent="gwMRO1ygE3LlnQRY7thv-41">
          <mxGeometry x="-0.1689" y="-4" relative="1" as="geometry">
            <mxPoint as="offset" />
          </mxGeometry>
        </mxCell>
        <mxCell id="gwMRO1ygE3LlnQRY7thv-43" value="" style="rounded=0;whiteSpace=wrap;html=1;" vertex="1" parent="1">
          <mxGeometry x="490" y="360" width="20" height="60" as="geometry" />
        </mxCell>
        <mxCell id="gwMRO1ygE3LlnQRY7thv-44" value="" style="rounded=0;whiteSpace=wrap;html=1;" vertex="1" parent="1">
          <mxGeometry x="685" y="370" width="20" height="40" as="geometry" />
        </mxCell>
        <mxCell id="gwMRO1ygE3LlnQRY7thv-45" value="" style="endArrow=classic;html=1;rounded=0;" edge="1" parent="1">
          <mxGeometry width="50" height="50" relative="1" as="geometry">
            <mxPoint x="510" y="370" as="sourcePoint" />
            <mxPoint x="690" y="370" as="targetPoint" />
            <Array as="points">
              <mxPoint x="660" y="370" />
              <mxPoint x="670" y="370" />
              <mxPoint x="690" y="370" />
            </Array>
          </mxGeometry>
        </mxCell>
        <mxCell id="gwMRO1ygE3LlnQRY7thv-46" value="&lt;font style=&quot;font-size: 15px;&quot;&gt;查询数据统计&lt;/font&gt;" style="edgeLabel;html=1;align=center;verticalAlign=middle;resizable=0;points=[];" vertex="1" connectable="0" parent="gwMRO1ygE3LlnQRY7thv-45">
          <mxGeometry x="-0.1689" y="-4" relative="1" as="geometry">
            <mxPoint as="offset" />
          </mxGeometry>
        </mxCell>
        <mxCell id="gwMRO1ygE3LlnQRY7thv-47" value="" style="endArrow=classic;html=1;rounded=0;exitX=0;exitY=1;exitDx=0;exitDy=0;entryX=1.033;entryY=0.819;entryDx=0;entryDy=0;entryPerimeter=0;" edge="1" source="gwMRO1ygE3LlnQRY7thv-44" target="gwMRO1ygE3LlnQRY7thv-43" parent="1">
          <mxGeometry width="50" height="50" relative="1" as="geometry">
            <mxPoint x="540" y="460" as="sourcePoint" />
            <mxPoint x="590" y="410" as="targetPoint" />
          </mxGeometry>
        </mxCell>
        <mxCell id="gwMRO1ygE3LlnQRY7thv-48" value="&lt;font style=&quot;font-size: 15px;&quot;&gt;返回查询结果&lt;/font&gt;" style="edgeLabel;html=1;align=center;verticalAlign=middle;resizable=0;points=[];" vertex="1" connectable="0" parent="gwMRO1ygE3LlnQRY7thv-47">
          <mxGeometry x="-0.0478" y="-1" relative="1" as="geometry">
            <mxPoint as="offset" />
          </mxGeometry>
        </mxCell>
        <mxCell id="gwMRO1ygE3LlnQRY7thv-49" value="" style="endArrow=classic;html=1;rounded=0;entryX=1.033;entryY=0.819;entryDx=0;entryDy=0;entryPerimeter=0;" edge="1" parent="1">
          <mxGeometry width="50" height="50" relative="1" as="geometry">
            <mxPoint x="490" y="420" as="sourcePoint" />
            <mxPoint x="330.34000000000003" y="419.86" as="targetPoint" />
          </mxGeometry>
        </mxCell>
        <mxCell id="gwMRO1ygE3LlnQRY7thv-50" value="&lt;font style=&quot;font-size: 15px;&quot;&gt;返回查询结果&lt;/font&gt;" style="edgeLabel;html=1;align=center;verticalAlign=middle;resizable=0;points=[];" vertex="1" connectable="0" parent="gwMRO1ygE3LlnQRY7thv-49">
          <mxGeometry x="-0.0478" y="-1" relative="1" as="geometry">
            <mxPoint as="offset" />
          </mxGeometry>
        </mxCell>
        <mxCell id="gwMRO1ygE3LlnQRY7thv-51" value="" style="endArrow=classic;html=1;rounded=0;entryX=1.033;entryY=0.819;entryDx=0;entryDy=0;entryPerimeter=0;" edge="1" parent="1">
          <mxGeometry width="50" height="50" relative="1" as="geometry">
            <mxPoint x="310" y="430" as="sourcePoint" />
            <mxPoint x="160.00000000000003" y="430" as="targetPoint" />
          </mxGeometry>
        </mxCell>
        <mxCell id="gwMRO1ygE3LlnQRY7thv-52" value="&lt;font style=&quot;font-size: 15px;&quot;&gt;显示数据统计&lt;/font&gt;" style="edgeLabel;html=1;align=center;verticalAlign=middle;resizable=0;points=[];" vertex="1" connectable="0" parent="gwMRO1ygE3LlnQRY7thv-51">
          <mxGeometry x="-0.0478" y="-1" relative="1" as="geometry">
            <mxPoint as="offset" />
          </mxGeometry>
        </mxCell>
      </root>
    </mxGraphModel>
  </diagram>
  <diagram id="B-FrVdA3r0Mnln7iBcxO" name="第 3 页">
    <mxGraphModel dx="1604" dy="910" grid="1" gridSize="10" guides="1" tooltips="1" connect="1" arrows="1" fold="1" page="1" pageScale="1" pageWidth="827" pageHeight="1169" math="0" shadow="0">
      <root>
        <mxCell id="0" />
        <mxCell id="1" parent="0" />
        <mxCell id="d_FDB6YeqfSAYbvPvx2B-1" value="" style="endArrow=none;html=1;rounded=0;dashed=1;" edge="1" parent="1">
          <mxGeometry width="50" height="50" relative="1" as="geometry">
            <mxPoint x="160" y="2210" as="sourcePoint" />
            <mxPoint x="160" y="180" as="targetPoint" />
          </mxGeometry>
        </mxCell>
        <mxCell id="d_FDB6YeqfSAYbvPvx2B-2" value="系办" style="shape=umlActor;verticalLabelPosition=bottom;verticalAlign=top;html=1;outlineConnect=0;fontSize=18;" vertex="1" parent="1">
          <mxGeometry x="140" y="80" width="30" height="60" as="geometry" />
        </mxCell>
        <mxCell id="d_FDB6YeqfSAYbvPvx2B-3" value="" style="endArrow=none;html=1;rounded=0;dashed=1;" edge="1" parent="1">
          <mxGeometry width="50" height="50" relative="1" as="geometry">
            <mxPoint x="320" y="2210" as="sourcePoint" />
            <mxPoint x="320" y="180" as="targetPoint" />
          </mxGeometry>
        </mxCell>
        <mxCell id="d_FDB6YeqfSAYbvPvx2B-4" value="&lt;font style=&quot;font-size: 20px;&quot;&gt;资格审核界面&lt;/font&gt;" style="rounded=0;whiteSpace=wrap;html=1;" vertex="1" parent="1">
          <mxGeometry x="250" y="100" width="140" height="60" as="geometry" />
        </mxCell>
        <mxCell id="d_FDB6YeqfSAYbvPvx2B-5" value="&lt;font style=&quot;font-size: 20px;&quot;&gt;资格审核处理&lt;/font&gt;" style="rounded=0;whiteSpace=wrap;html=1;" vertex="1" parent="1">
          <mxGeometry x="430" y="100" width="140" height="60" as="geometry" />
        </mxCell>
        <mxCell id="d_FDB6YeqfSAYbvPvx2B-6" value="" style="endArrow=none;html=1;rounded=0;dashed=1;" edge="1" parent="1" source="d_FDB6YeqfSAYbvPvx2B-15">
          <mxGeometry width="50" height="50" relative="1" as="geometry">
            <mxPoint x="499.40999999999997" y="2210" as="sourcePoint" />
            <mxPoint x="499.40999999999997" y="180" as="targetPoint" />
          </mxGeometry>
        </mxCell>
        <mxCell id="d_FDB6YeqfSAYbvPvx2B-7" value="&lt;font style=&quot;font-size: 20px;&quot;&gt;数据库&lt;/font&gt;" style="rounded=0;whiteSpace=wrap;html=1;" vertex="1" parent="1">
          <mxGeometry x="620" y="100" width="150" height="60" as="geometry" />
        </mxCell>
        <mxCell id="d_FDB6YeqfSAYbvPvx2B-8" value="" style="endArrow=none;html=1;rounded=0;dashed=1;" edge="1" parent="1" source="d_FDB6YeqfSAYbvPvx2B-17">
          <mxGeometry width="50" height="50" relative="1" as="geometry">
            <mxPoint x="694.41" y="2210" as="sourcePoint" />
            <mxPoint x="694.41" y="180" as="targetPoint" />
          </mxGeometry>
        </mxCell>
        <mxCell id="d_FDB6YeqfSAYbvPvx2B-9" value="" style="rounded=0;whiteSpace=wrap;html=1;" vertex="1" parent="1">
          <mxGeometry x="310" y="220" width="20" height="80" as="geometry" />
        </mxCell>
        <mxCell id="d_FDB6YeqfSAYbvPvx2B-10" value="" style="endArrow=classic;html=1;rounded=0;" edge="1" parent="1">
          <mxGeometry width="50" height="50" relative="1" as="geometry">
            <mxPoint x="160" y="220" as="sourcePoint" />
            <mxPoint x="310" y="220" as="targetPoint" />
            <Array as="points">
              <mxPoint x="310" y="220" />
            </Array>
          </mxGeometry>
        </mxCell>
        <mxCell id="d_FDB6YeqfSAYbvPvx2B-11" value="&lt;span style=&quot;font-size: 15px;&quot;&gt;查看请求&lt;/span&gt;" style="edgeLabel;html=1;align=center;verticalAlign=middle;resizable=0;points=[];" vertex="1" connectable="0" parent="d_FDB6YeqfSAYbvPvx2B-10">
          <mxGeometry x="-0.1689" y="-4" relative="1" as="geometry">
            <mxPoint as="offset" />
          </mxGeometry>
        </mxCell>
        <mxCell id="d_FDB6YeqfSAYbvPvx2B-12" value="" style="endArrow=classic;html=1;rounded=0;entryX=0;entryY=0;entryDx=0;entryDy=0;" edge="1" parent="1" target="d_FDB6YeqfSAYbvPvx2B-15">
          <mxGeometry width="50" height="50" relative="1" as="geometry">
            <mxPoint x="330" y="230" as="sourcePoint" />
            <mxPoint x="480" y="230" as="targetPoint" />
            <Array as="points">
              <mxPoint x="480" y="230" />
              <mxPoint x="490" y="230" />
            </Array>
          </mxGeometry>
        </mxCell>
        <mxCell id="d_FDB6YeqfSAYbvPvx2B-13" value="&lt;font style=&quot;font-size: 15px;&quot;&gt;上传请求&lt;/font&gt;" style="edgeLabel;html=1;align=center;verticalAlign=middle;resizable=0;points=[];" vertex="1" connectable="0" parent="d_FDB6YeqfSAYbvPvx2B-12">
          <mxGeometry x="-0.1689" y="-4" relative="1" as="geometry">
            <mxPoint as="offset" />
          </mxGeometry>
        </mxCell>
        <mxCell id="d_FDB6YeqfSAYbvPvx2B-14" value="" style="endArrow=none;html=1;rounded=0;dashed=1;" edge="1" parent="1" target="d_FDB6YeqfSAYbvPvx2B-15">
          <mxGeometry width="50" height="50" relative="1" as="geometry">
            <mxPoint x="499.40999999999997" y="2210" as="sourcePoint" />
            <mxPoint x="499.40999999999997" y="180" as="targetPoint" />
          </mxGeometry>
        </mxCell>
        <mxCell id="d_FDB6YeqfSAYbvPvx2B-15" value="" style="rounded=0;whiteSpace=wrap;html=1;" vertex="1" parent="1">
          <mxGeometry x="490" y="230" width="20" height="60" as="geometry" />
        </mxCell>
        <mxCell id="d_FDB6YeqfSAYbvPvx2B-16" value="" style="endArrow=none;html=1;rounded=0;dashed=1;" edge="1" parent="1" target="d_FDB6YeqfSAYbvPvx2B-17" source="mqqv1f9lEwlwjksETVZH-5">
          <mxGeometry width="50" height="50" relative="1" as="geometry">
            <mxPoint x="694.41" y="2210" as="sourcePoint" />
            <mxPoint x="694.41" y="180" as="targetPoint" />
          </mxGeometry>
        </mxCell>
        <mxCell id="d_FDB6YeqfSAYbvPvx2B-17" value="" style="rounded=0;whiteSpace=wrap;html=1;" vertex="1" parent="1">
          <mxGeometry x="685" y="240" width="20" height="40" as="geometry" />
        </mxCell>
        <mxCell id="d_FDB6YeqfSAYbvPvx2B-18" value="" style="endArrow=classic;html=1;rounded=0;" edge="1" parent="1">
          <mxGeometry width="50" height="50" relative="1" as="geometry">
            <mxPoint x="510" y="240" as="sourcePoint" />
            <mxPoint x="690" y="240" as="targetPoint" />
            <Array as="points">
              <mxPoint x="660" y="240" />
              <mxPoint x="670" y="240" />
              <mxPoint x="690" y="240" />
            </Array>
          </mxGeometry>
        </mxCell>
        <mxCell id="d_FDB6YeqfSAYbvPvx2B-19" value="&lt;font style=&quot;font-size: 15px;&quot;&gt;查询待审信息&lt;/font&gt;" style="edgeLabel;html=1;align=center;verticalAlign=middle;resizable=0;points=[];" vertex="1" connectable="0" parent="d_FDB6YeqfSAYbvPvx2B-18">
          <mxGeometry x="-0.1689" y="-4" relative="1" as="geometry">
            <mxPoint as="offset" />
          </mxGeometry>
        </mxCell>
        <mxCell id="d_FDB6YeqfSAYbvPvx2B-20" value="" style="endArrow=classic;html=1;rounded=0;exitX=0;exitY=1;exitDx=0;exitDy=0;entryX=1.033;entryY=0.819;entryDx=0;entryDy=0;entryPerimeter=0;" edge="1" parent="1" source="d_FDB6YeqfSAYbvPvx2B-17" target="d_FDB6YeqfSAYbvPvx2B-15">
          <mxGeometry width="50" height="50" relative="1" as="geometry">
            <mxPoint x="540" y="330" as="sourcePoint" />
            <mxPoint x="590" y="280" as="targetPoint" />
          </mxGeometry>
        </mxCell>
        <mxCell id="d_FDB6YeqfSAYbvPvx2B-21" value="&lt;font style=&quot;font-size: 15px;&quot;&gt;返回查询结果&lt;/font&gt;" style="edgeLabel;html=1;align=center;verticalAlign=middle;resizable=0;points=[];" vertex="1" connectable="0" parent="d_FDB6YeqfSAYbvPvx2B-20">
          <mxGeometry x="-0.0478" y="-1" relative="1" as="geometry">
            <mxPoint as="offset" />
          </mxGeometry>
        </mxCell>
        <mxCell id="d_FDB6YeqfSAYbvPvx2B-22" value="" style="endArrow=classic;html=1;rounded=0;entryX=1.033;entryY=0.819;entryDx=0;entryDy=0;entryPerimeter=0;" edge="1" parent="1">
          <mxGeometry width="50" height="50" relative="1" as="geometry">
            <mxPoint x="490" y="290" as="sourcePoint" />
            <mxPoint x="330.34000000000003" y="289.86" as="targetPoint" />
          </mxGeometry>
        </mxCell>
        <mxCell id="d_FDB6YeqfSAYbvPvx2B-23" value="&lt;font style=&quot;font-size: 15px;&quot;&gt;返回待审列表&lt;/font&gt;" style="edgeLabel;html=1;align=center;verticalAlign=middle;resizable=0;points=[];" vertex="1" connectable="0" parent="d_FDB6YeqfSAYbvPvx2B-22">
          <mxGeometry x="-0.0478" y="-1" relative="1" as="geometry">
            <mxPoint as="offset" />
          </mxGeometry>
        </mxCell>
        <mxCell id="d_FDB6YeqfSAYbvPvx2B-24" value="" style="endArrow=classic;html=1;rounded=0;entryX=1.033;entryY=0.819;entryDx=0;entryDy=0;entryPerimeter=0;" edge="1" parent="1">
          <mxGeometry width="50" height="50" relative="1" as="geometry">
            <mxPoint x="310" y="300" as="sourcePoint" />
            <mxPoint x="160.00000000000003" y="300" as="targetPoint" />
          </mxGeometry>
        </mxCell>
        <mxCell id="d_FDB6YeqfSAYbvPvx2B-25" value="&lt;font style=&quot;font-size: 15px;&quot;&gt;显示待审列表&lt;/font&gt;" style="edgeLabel;html=1;align=center;verticalAlign=middle;resizable=0;points=[];" vertex="1" connectable="0" parent="d_FDB6YeqfSAYbvPvx2B-24">
          <mxGeometry x="-0.0478" y="-1" relative="1" as="geometry">
            <mxPoint as="offset" />
          </mxGeometry>
        </mxCell>
        <mxCell id="d_FDB6YeqfSAYbvPvx2B-26" value="" style="rounded=0;whiteSpace=wrap;html=1;" vertex="1" parent="1">
          <mxGeometry x="310" y="350" width="20" height="80" as="geometry" />
        </mxCell>
        <mxCell id="d_FDB6YeqfSAYbvPvx2B-27" value="" style="endArrow=classic;html=1;rounded=0;" edge="1" parent="1">
          <mxGeometry width="50" height="50" relative="1" as="geometry">
            <mxPoint x="160" y="350" as="sourcePoint" />
            <mxPoint x="310" y="350" as="targetPoint" />
            <Array as="points">
              <mxPoint x="310" y="350" />
            </Array>
          </mxGeometry>
        </mxCell>
        <mxCell id="d_FDB6YeqfSAYbvPvx2B-28" value="&lt;span style=&quot;font-size: 15px;&quot;&gt;选择待审信息&lt;/span&gt;" style="edgeLabel;html=1;align=center;verticalAlign=middle;resizable=0;points=[];" vertex="1" connectable="0" parent="d_FDB6YeqfSAYbvPvx2B-27">
          <mxGeometry x="-0.1689" y="-4" relative="1" as="geometry">
            <mxPoint as="offset" />
          </mxGeometry>
        </mxCell>
        <mxCell id="d_FDB6YeqfSAYbvPvx2B-29" value="" style="endArrow=classic;html=1;rounded=0;entryX=0;entryY=0;entryDx=0;entryDy=0;" edge="1" parent="1" target="d_FDB6YeqfSAYbvPvx2B-31">
          <mxGeometry width="50" height="50" relative="1" as="geometry">
            <mxPoint x="330" y="360" as="sourcePoint" />
            <mxPoint x="480" y="360" as="targetPoint" />
            <Array as="points">
              <mxPoint x="480" y="360" />
              <mxPoint x="490" y="360" />
            </Array>
          </mxGeometry>
        </mxCell>
        <mxCell id="d_FDB6YeqfSAYbvPvx2B-30" value="&lt;font style=&quot;font-size: 15px;&quot;&gt;上传请求&lt;/font&gt;" style="edgeLabel;html=1;align=center;verticalAlign=middle;resizable=0;points=[];" vertex="1" connectable="0" parent="d_FDB6YeqfSAYbvPvx2B-29">
          <mxGeometry x="-0.1689" y="-4" relative="1" as="geometry">
            <mxPoint as="offset" />
          </mxGeometry>
        </mxCell>
        <mxCell id="d_FDB6YeqfSAYbvPvx2B-31" value="" style="rounded=0;whiteSpace=wrap;html=1;" vertex="1" parent="1">
          <mxGeometry x="490" y="360" width="20" height="60" as="geometry" />
        </mxCell>
        <mxCell id="d_FDB6YeqfSAYbvPvx2B-32" value="" style="rounded=0;whiteSpace=wrap;html=1;" vertex="1" parent="1">
          <mxGeometry x="685" y="370" width="20" height="40" as="geometry" />
        </mxCell>
        <mxCell id="d_FDB6YeqfSAYbvPvx2B-33" value="" style="endArrow=classic;html=1;rounded=0;" edge="1" parent="1">
          <mxGeometry width="50" height="50" relative="1" as="geometry">
            <mxPoint x="510" y="370" as="sourcePoint" />
            <mxPoint x="690" y="370" as="targetPoint" />
            <Array as="points">
              <mxPoint x="660" y="370" />
              <mxPoint x="670" y="370" />
              <mxPoint x="690" y="370" />
            </Array>
          </mxGeometry>
        </mxCell>
        <mxCell id="d_FDB6YeqfSAYbvPvx2B-34" value="&lt;font style=&quot;font-size: 15px;&quot;&gt;查询详细信息&lt;/font&gt;" style="edgeLabel;html=1;align=center;verticalAlign=middle;resizable=0;points=[];" vertex="1" connectable="0" parent="d_FDB6YeqfSAYbvPvx2B-33">
          <mxGeometry x="-0.1689" y="-4" relative="1" as="geometry">
            <mxPoint as="offset" />
          </mxGeometry>
        </mxCell>
        <mxCell id="d_FDB6YeqfSAYbvPvx2B-35" value="" style="endArrow=classic;html=1;rounded=0;exitX=0;exitY=1;exitDx=0;exitDy=0;entryX=1.033;entryY=0.819;entryDx=0;entryDy=0;entryPerimeter=0;" edge="1" parent="1" source="d_FDB6YeqfSAYbvPvx2B-32" target="d_FDB6YeqfSAYbvPvx2B-31">
          <mxGeometry width="50" height="50" relative="1" as="geometry">
            <mxPoint x="540" y="460" as="sourcePoint" />
            <mxPoint x="590" y="410" as="targetPoint" />
          </mxGeometry>
        </mxCell>
        <mxCell id="d_FDB6YeqfSAYbvPvx2B-36" value="&lt;font style=&quot;font-size: 15px;&quot;&gt;返回查询结果&lt;/font&gt;" style="edgeLabel;html=1;align=center;verticalAlign=middle;resizable=0;points=[];" vertex="1" connectable="0" parent="d_FDB6YeqfSAYbvPvx2B-35">
          <mxGeometry x="-0.0478" y="-1" relative="1" as="geometry">
            <mxPoint as="offset" />
          </mxGeometry>
        </mxCell>
        <mxCell id="d_FDB6YeqfSAYbvPvx2B-37" value="" style="endArrow=classic;html=1;rounded=0;entryX=1.033;entryY=0.819;entryDx=0;entryDy=0;entryPerimeter=0;" edge="1" parent="1">
          <mxGeometry width="50" height="50" relative="1" as="geometry">
            <mxPoint x="490" y="420" as="sourcePoint" />
            <mxPoint x="330.34000000000003" y="419.86" as="targetPoint" />
          </mxGeometry>
        </mxCell>
        <mxCell id="d_FDB6YeqfSAYbvPvx2B-38" value="&lt;font style=&quot;font-size: 15px;&quot;&gt;返回查询结果&lt;/font&gt;" style="edgeLabel;html=1;align=center;verticalAlign=middle;resizable=0;points=[];" vertex="1" connectable="0" parent="d_FDB6YeqfSAYbvPvx2B-37">
          <mxGeometry x="-0.0478" y="-1" relative="1" as="geometry">
            <mxPoint as="offset" />
          </mxGeometry>
        </mxCell>
        <mxCell id="d_FDB6YeqfSAYbvPvx2B-39" value="" style="endArrow=classic;html=1;rounded=0;entryX=1.033;entryY=0.819;entryDx=0;entryDy=0;entryPerimeter=0;" edge="1" parent="1">
          <mxGeometry width="50" height="50" relative="1" as="geometry">
            <mxPoint x="310" y="430" as="sourcePoint" />
            <mxPoint x="160.00000000000003" y="430" as="targetPoint" />
          </mxGeometry>
        </mxCell>
        <mxCell id="d_FDB6YeqfSAYbvPvx2B-40" value="&lt;font style=&quot;font-size: 15px;&quot;&gt;显示详细信息&lt;/font&gt;" style="edgeLabel;html=1;align=center;verticalAlign=middle;resizable=0;points=[];" vertex="1" connectable="0" parent="d_FDB6YeqfSAYbvPvx2B-39">
          <mxGeometry x="-0.0478" y="-1" relative="1" as="geometry">
            <mxPoint as="offset" />
          </mxGeometry>
        </mxCell>
        <mxCell id="d_FDB6YeqfSAYbvPvx2B-42" value="" style="rounded=0;whiteSpace=wrap;html=1;" vertex="1" parent="1">
          <mxGeometry x="310" y="480" width="20" height="280" as="geometry" />
        </mxCell>
        <mxCell id="d_FDB6YeqfSAYbvPvx2B-43" value="" style="endArrow=classic;html=1;rounded=0;" edge="1" parent="1">
          <mxGeometry width="50" height="50" relative="1" as="geometry">
            <mxPoint x="160" y="480" as="sourcePoint" />
            <mxPoint x="310" y="480" as="targetPoint" />
            <Array as="points">
              <mxPoint x="310" y="480" />
            </Array>
          </mxGeometry>
        </mxCell>
        <mxCell id="d_FDB6YeqfSAYbvPvx2B-44" value="&lt;span style=&quot;font-size: 15px;&quot;&gt;输入审理意见&lt;/span&gt;" style="edgeLabel;html=1;align=center;verticalAlign=middle;resizable=0;points=[];" vertex="1" connectable="0" parent="d_FDB6YeqfSAYbvPvx2B-43">
          <mxGeometry x="-0.1689" y="-4" relative="1" as="geometry">
            <mxPoint as="offset" />
          </mxGeometry>
        </mxCell>
        <mxCell id="d_FDB6YeqfSAYbvPvx2B-45" value="" style="endArrow=classic;html=1;rounded=0;entryX=0;entryY=0;entryDx=0;entryDy=0;" edge="1" target="d_FDB6YeqfSAYbvPvx2B-47" parent="1">
          <mxGeometry width="50" height="50" relative="1" as="geometry">
            <mxPoint x="330" y="490" as="sourcePoint" />
            <mxPoint x="480" y="490" as="targetPoint" />
            <Array as="points">
              <mxPoint x="480" y="490" />
              <mxPoint x="490" y="490" />
            </Array>
          </mxGeometry>
        </mxCell>
        <mxCell id="d_FDB6YeqfSAYbvPvx2B-46" value="&lt;font style=&quot;font-size: 15px;&quot;&gt;上传审理意见&lt;/font&gt;" style="edgeLabel;html=1;align=center;verticalAlign=middle;resizable=0;points=[];" vertex="1" connectable="0" parent="d_FDB6YeqfSAYbvPvx2B-45">
          <mxGeometry x="-0.1689" y="-4" relative="1" as="geometry">
            <mxPoint as="offset" />
          </mxGeometry>
        </mxCell>
        <mxCell id="d_FDB6YeqfSAYbvPvx2B-47" value="" style="rounded=0;whiteSpace=wrap;html=1;" vertex="1" parent="1">
          <mxGeometry x="490" y="490" width="20" height="220" as="geometry" />
        </mxCell>
        <mxCell id="d_FDB6YeqfSAYbvPvx2B-48" value="" style="rounded=0;whiteSpace=wrap;html=1;" vertex="1" parent="1">
          <mxGeometry x="685" y="530" width="20" height="40" as="geometry" />
        </mxCell>
        <mxCell id="d_FDB6YeqfSAYbvPvx2B-49" value="" style="endArrow=classic;html=1;rounded=0;" edge="1" parent="1">
          <mxGeometry width="50" height="50" relative="1" as="geometry">
            <mxPoint x="510" y="530" as="sourcePoint" />
            <mxPoint x="690" y="530" as="targetPoint" />
            <Array as="points">
              <mxPoint x="660" y="530" />
              <mxPoint x="670" y="530" />
              <mxPoint x="690" y="530" />
            </Array>
          </mxGeometry>
        </mxCell>
        <mxCell id="d_FDB6YeqfSAYbvPvx2B-50" value="&lt;font style=&quot;font-size: 15px;&quot;&gt;上传审理意见&lt;/font&gt;" style="edgeLabel;html=1;align=center;verticalAlign=middle;resizable=0;points=[];" vertex="1" connectable="0" parent="d_FDB6YeqfSAYbvPvx2B-49">
          <mxGeometry x="-0.1689" y="-4" relative="1" as="geometry">
            <mxPoint as="offset" />
          </mxGeometry>
        </mxCell>
        <mxCell id="d_FDB6YeqfSAYbvPvx2B-51" value="" style="endArrow=classic;html=1;rounded=0;exitX=0;exitY=1;exitDx=0;exitDy=0;entryX=1.033;entryY=0.819;entryDx=0;entryDy=0;entryPerimeter=0;" edge="1" source="d_FDB6YeqfSAYbvPvx2B-48" parent="1">
          <mxGeometry width="50" height="50" relative="1" as="geometry">
            <mxPoint x="540" y="620" as="sourcePoint" />
            <mxPoint x="510.65999999999985" y="569.1400000000001" as="targetPoint" />
          </mxGeometry>
        </mxCell>
        <mxCell id="d_FDB6YeqfSAYbvPvx2B-52" value="&lt;font style=&quot;font-size: 15px;&quot;&gt;返回结果&lt;/font&gt;" style="edgeLabel;html=1;align=center;verticalAlign=middle;resizable=0;points=[];" vertex="1" connectable="0" parent="d_FDB6YeqfSAYbvPvx2B-51">
          <mxGeometry x="-0.0478" y="-1" relative="1" as="geometry">
            <mxPoint as="offset" />
          </mxGeometry>
        </mxCell>
        <mxCell id="d_FDB6YeqfSAYbvPvx2B-53" value="" style="endArrow=classic;html=1;rounded=0;entryX=1.033;entryY=0.819;entryDx=0;entryDy=0;entryPerimeter=0;" edge="1" parent="1">
          <mxGeometry width="50" height="50" relative="1" as="geometry">
            <mxPoint x="489.66" y="710.14" as="sourcePoint" />
            <mxPoint x="330.00000000000006" y="710" as="targetPoint" />
          </mxGeometry>
        </mxCell>
        <mxCell id="d_FDB6YeqfSAYbvPvx2B-54" value="&lt;font style=&quot;font-size: 15px;&quot;&gt;返回结果&lt;/font&gt;" style="edgeLabel;html=1;align=center;verticalAlign=middle;resizable=0;points=[];" vertex="1" connectable="0" parent="d_FDB6YeqfSAYbvPvx2B-53">
          <mxGeometry x="-0.0478" y="-1" relative="1" as="geometry">
            <mxPoint as="offset" />
          </mxGeometry>
        </mxCell>
        <mxCell id="d_FDB6YeqfSAYbvPvx2B-55" value="" style="endArrow=classic;html=1;rounded=0;entryX=1.033;entryY=0.819;entryDx=0;entryDy=0;entryPerimeter=0;" edge="1" parent="1">
          <mxGeometry width="50" height="50" relative="1" as="geometry">
            <mxPoint x="310" y="540" as="sourcePoint" />
            <mxPoint x="160.00000000000003" y="540" as="targetPoint" />
          </mxGeometry>
        </mxCell>
        <mxCell id="d_FDB6YeqfSAYbvPvx2B-56" value="&lt;font style=&quot;font-size: 15px;&quot;&gt;显示&lt;/font&gt;有效性验证结果" style="edgeLabel;html=1;align=center;verticalAlign=middle;resizable=0;points=[];" vertex="1" connectable="0" parent="d_FDB6YeqfSAYbvPvx2B-55">
          <mxGeometry x="-0.0478" y="-1" relative="1" as="geometry">
            <mxPoint as="offset" />
          </mxGeometry>
        </mxCell>
        <mxCell id="d_FDB6YeqfSAYbvPvx2B-59" value="" style="endArrow=classic;html=1;rounded=0;entryX=1.033;entryY=0.819;entryDx=0;entryDy=0;entryPerimeter=0;" edge="1" parent="1">
          <mxGeometry width="50" height="50" relative="1" as="geometry">
            <mxPoint x="490" y="519.78" as="sourcePoint" />
            <mxPoint x="330.34000000000003" y="519.64" as="targetPoint" />
          </mxGeometry>
        </mxCell>
        <mxCell id="d_FDB6YeqfSAYbvPvx2B-60" value="&lt;font style=&quot;font-size: 15px;&quot;&gt;返回有效性验证结果&lt;/font&gt;" style="edgeLabel;html=1;align=center;verticalAlign=middle;resizable=0;points=[];" vertex="1" connectable="0" parent="d_FDB6YeqfSAYbvPvx2B-59">
          <mxGeometry x="-0.0478" y="-1" relative="1" as="geometry">
            <mxPoint as="offset" />
          </mxGeometry>
        </mxCell>
        <mxCell id="mqqv1f9lEwlwjksETVZH-6" value="" style="endArrow=classic;html=1;rounded=0;entryX=0;entryY=0;entryDx=0;entryDy=0;" edge="1" parent="1" target="mqqv1f9lEwlwjksETVZH-5">
          <mxGeometry width="50" height="50" relative="1" as="geometry">
            <mxPoint x="510" y="589.68" as="sourcePoint" />
            <mxPoint x="690" y="589.68" as="targetPoint" />
            <Array as="points">
              <mxPoint x="660" y="589.68" />
              <mxPoint x="610" y="590" />
            </Array>
          </mxGeometry>
        </mxCell>
        <mxCell id="mqqv1f9lEwlwjksETVZH-7" value="&lt;font style=&quot;font-size: 15px;&quot;&gt;修改学生名册&lt;/font&gt;" style="edgeLabel;html=1;align=center;verticalAlign=middle;resizable=0;points=[];" vertex="1" connectable="0" parent="mqqv1f9lEwlwjksETVZH-6">
          <mxGeometry x="-0.1689" y="-4" relative="1" as="geometry">
            <mxPoint as="offset" />
          </mxGeometry>
        </mxCell>
        <mxCell id="mqqv1f9lEwlwjksETVZH-8" value="" style="endArrow=classic;html=1;rounded=0;exitX=0;exitY=1;exitDx=0;exitDy=0;entryX=1.033;entryY=0.819;entryDx=0;entryDy=0;entryPerimeter=0;" edge="1" source="mqqv1f9lEwlwjksETVZH-5" parent="1">
          <mxGeometry width="50" height="50" relative="1" as="geometry">
            <mxPoint x="540" y="679.68" as="sourcePoint" />
            <mxPoint x="510.65999999999985" y="628.82" as="targetPoint" />
          </mxGeometry>
        </mxCell>
        <mxCell id="mqqv1f9lEwlwjksETVZH-9" value="&lt;font style=&quot;font-size: 15px;&quot;&gt;返回结果&lt;/font&gt;" style="edgeLabel;html=1;align=center;verticalAlign=middle;resizable=0;points=[];" vertex="1" connectable="0" parent="mqqv1f9lEwlwjksETVZH-8">
          <mxGeometry x="-0.0478" y="-1" relative="1" as="geometry">
            <mxPoint as="offset" />
          </mxGeometry>
        </mxCell>
        <mxCell id="mqqv1f9lEwlwjksETVZH-12" value="" style="endArrow=classic;html=1;rounded=0;entryX=0;entryY=0;entryDx=0;entryDy=0;" edge="1" target="mqqv1f9lEwlwjksETVZH-16" parent="1">
          <mxGeometry width="50" height="50" relative="1" as="geometry">
            <mxPoint x="510" y="660" as="sourcePoint" />
            <mxPoint x="690" y="660" as="targetPoint" />
            <Array as="points">
              <mxPoint x="660" y="660" />
              <mxPoint x="670" y="660" />
            </Array>
          </mxGeometry>
        </mxCell>
        <mxCell id="mqqv1f9lEwlwjksETVZH-13" value="&lt;font style=&quot;font-size: 15px;&quot;&gt;修改数据统计&lt;/font&gt;" style="edgeLabel;html=1;align=center;verticalAlign=middle;resizable=0;points=[];" vertex="1" connectable="0" parent="mqqv1f9lEwlwjksETVZH-12">
          <mxGeometry x="-0.1689" y="-4" relative="1" as="geometry">
            <mxPoint as="offset" />
          </mxGeometry>
        </mxCell>
        <mxCell id="mqqv1f9lEwlwjksETVZH-14" value="" style="endArrow=classic;html=1;rounded=0;exitX=0;exitY=1;exitDx=0;exitDy=0;entryX=1.033;entryY=0.819;entryDx=0;entryDy=0;entryPerimeter=0;" edge="1" source="mqqv1f9lEwlwjksETVZH-16" parent="1">
          <mxGeometry width="50" height="50" relative="1" as="geometry">
            <mxPoint x="540" y="750" as="sourcePoint" />
            <mxPoint x="510.65999999999985" y="699.1400000000001" as="targetPoint" />
          </mxGeometry>
        </mxCell>
        <mxCell id="mqqv1f9lEwlwjksETVZH-15" value="&lt;font style=&quot;font-size: 15px;&quot;&gt;返回结果&lt;/font&gt;" style="edgeLabel;html=1;align=center;verticalAlign=middle;resizable=0;points=[];" vertex="1" connectable="0" parent="mqqv1f9lEwlwjksETVZH-14">
          <mxGeometry x="-0.0478" y="-1" relative="1" as="geometry">
            <mxPoint as="offset" />
          </mxGeometry>
        </mxCell>
        <mxCell id="mqqv1f9lEwlwjksETVZH-16" value="" style="rounded=0;whiteSpace=wrap;html=1;" vertex="1" parent="1">
          <mxGeometry x="685" y="660.3199999999999" width="20" height="40" as="geometry" />
        </mxCell>
        <mxCell id="mqqv1f9lEwlwjksETVZH-18" value="" style="endArrow=classic;html=1;rounded=0;entryX=1.033;entryY=0.819;entryDx=0;entryDy=0;entryPerimeter=0;" edge="1" parent="1">
          <mxGeometry width="50" height="50" relative="1" as="geometry">
            <mxPoint x="310" y="760" as="sourcePoint" />
            <mxPoint x="160.00000000000003" y="760" as="targetPoint" />
          </mxGeometry>
        </mxCell>
        <mxCell id="mqqv1f9lEwlwjksETVZH-19" value="&lt;font style=&quot;font-size: 15px;&quot;&gt;显示结果&lt;/font&gt;" style="edgeLabel;html=1;align=center;verticalAlign=middle;resizable=0;points=[];" vertex="1" connectable="0" parent="mqqv1f9lEwlwjksETVZH-18">
          <mxGeometry x="-0.0478" y="-1" relative="1" as="geometry">
            <mxPoint as="offset" />
          </mxGeometry>
        </mxCell>
        <mxCell id="WF0dD58DKxdZBLXV9R43-1" value="" style="endArrow=none;html=1;rounded=0;dashed=1;" edge="1" parent="1" target="mqqv1f9lEwlwjksETVZH-5">
          <mxGeometry width="50" height="50" relative="1" as="geometry">
            <mxPoint x="694.41" y="2210" as="sourcePoint" />
            <mxPoint x="695" y="280" as="targetPoint" />
          </mxGeometry>
        </mxCell>
        <mxCell id="mqqv1f9lEwlwjksETVZH-5" value="" style="rounded=0;whiteSpace=wrap;html=1;" vertex="1" parent="1">
          <mxGeometry x="685" y="590" width="20" height="40" as="geometry" />
        </mxCell>
      </root>
    </mxGraphModel>
  </diagram>
  <diagram id="GQaluLOX3Z5i0ss7IjiI" name="第 4 页">
    <mxGraphModel dx="1458" dy="827" grid="1" gridSize="10" guides="1" tooltips="1" connect="1" arrows="1" fold="1" page="1" pageScale="1" pageWidth="827" pageHeight="1169" math="0" shadow="0">
      <root>
        <mxCell id="0" />
        <mxCell id="1" parent="0" />
        <mxCell id="GXVeMxoapCB2V32r6AwR-1" value="" style="endArrow=none;html=1;rounded=0;dashed=1;" edge="1" parent="1">
          <mxGeometry width="50" height="50" relative="1" as="geometry">
            <mxPoint x="160" y="2210" as="sourcePoint" />
            <mxPoint x="160" y="180" as="targetPoint" />
          </mxGeometry>
        </mxCell>
        <mxCell id="GXVeMxoapCB2V32r6AwR-2" value="系办" style="shape=umlActor;verticalLabelPosition=bottom;verticalAlign=top;html=1;outlineConnect=0;fontSize=18;" vertex="1" parent="1">
          <mxGeometry x="140" y="80" width="30" height="60" as="geometry" />
        </mxCell>
        <mxCell id="GXVeMxoapCB2V32r6AwR-3" value="" style="endArrow=none;html=1;rounded=0;dashed=1;" edge="1" parent="1">
          <mxGeometry width="50" height="50" relative="1" as="geometry">
            <mxPoint x="320" y="2210" as="sourcePoint" />
            <mxPoint x="320" y="180" as="targetPoint" />
          </mxGeometry>
        </mxCell>
        <mxCell id="GXVeMxoapCB2V32r6AwR-4" value="&lt;font style=&quot;font-size: 20px;&quot;&gt;上传成绩界面&lt;/font&gt;" style="rounded=0;whiteSpace=wrap;html=1;" vertex="1" parent="1">
          <mxGeometry x="250" y="100" width="140" height="60" as="geometry" />
        </mxCell>
        <mxCell id="GXVeMxoapCB2V32r6AwR-5" value="&lt;font style=&quot;font-size: 20px;&quot;&gt;上传成绩处理&lt;/font&gt;" style="rounded=0;whiteSpace=wrap;html=1;" vertex="1" parent="1">
          <mxGeometry x="430" y="100" width="140" height="60" as="geometry" />
        </mxCell>
        <mxCell id="GXVeMxoapCB2V32r6AwR-6" value="" style="endArrow=none;html=1;rounded=0;dashed=1;" edge="1" parent="1" source="GXVeMxoapCB2V32r6AwR-15">
          <mxGeometry width="50" height="50" relative="1" as="geometry">
            <mxPoint x="499.40999999999997" y="2210" as="sourcePoint" />
            <mxPoint x="499.40999999999997" y="180" as="targetPoint" />
          </mxGeometry>
        </mxCell>
        <mxCell id="GXVeMxoapCB2V32r6AwR-7" value="&lt;font style=&quot;font-size: 20px;&quot;&gt;数据库&lt;/font&gt;" style="rounded=0;whiteSpace=wrap;html=1;" vertex="1" parent="1">
          <mxGeometry x="620" y="100" width="150" height="60" as="geometry" />
        </mxCell>
        <mxCell id="GXVeMxoapCB2V32r6AwR-8" value="" style="endArrow=none;html=1;rounded=0;dashed=1;" edge="1" parent="1" source="GXVeMxoapCB2V32r6AwR-17">
          <mxGeometry width="50" height="50" relative="1" as="geometry">
            <mxPoint x="694.41" y="2210" as="sourcePoint" />
            <mxPoint x="694.41" y="180" as="targetPoint" />
          </mxGeometry>
        </mxCell>
        <mxCell id="GXVeMxoapCB2V32r6AwR-9" value="" style="rounded=0;whiteSpace=wrap;html=1;" vertex="1" parent="1">
          <mxGeometry x="310" y="220" width="20" height="80" as="geometry" />
        </mxCell>
        <mxCell id="GXVeMxoapCB2V32r6AwR-10" value="" style="endArrow=classic;html=1;rounded=0;" edge="1" parent="1">
          <mxGeometry width="50" height="50" relative="1" as="geometry">
            <mxPoint x="160" y="220" as="sourcePoint" />
            <mxPoint x="310" y="220" as="targetPoint" />
            <Array as="points">
              <mxPoint x="310" y="220" />
            </Array>
          </mxGeometry>
        </mxCell>
        <mxCell id="GXVeMxoapCB2V32r6AwR-11" value="&lt;span style=&quot;font-size: 15px;&quot;&gt;查看请求&lt;/span&gt;" style="edgeLabel;html=1;align=center;verticalAlign=middle;resizable=0;points=[];" vertex="1" connectable="0" parent="GXVeMxoapCB2V32r6AwR-10">
          <mxGeometry x="-0.1689" y="-4" relative="1" as="geometry">
            <mxPoint as="offset" />
          </mxGeometry>
        </mxCell>
        <mxCell id="GXVeMxoapCB2V32r6AwR-12" value="" style="endArrow=classic;html=1;rounded=0;entryX=0;entryY=0;entryDx=0;entryDy=0;" edge="1" parent="1" target="GXVeMxoapCB2V32r6AwR-15">
          <mxGeometry width="50" height="50" relative="1" as="geometry">
            <mxPoint x="330" y="230" as="sourcePoint" />
            <mxPoint x="480" y="230" as="targetPoint" />
            <Array as="points">
              <mxPoint x="480" y="230" />
              <mxPoint x="490" y="230" />
            </Array>
          </mxGeometry>
        </mxCell>
        <mxCell id="GXVeMxoapCB2V32r6AwR-13" value="&lt;font style=&quot;font-size: 15px;&quot;&gt;上传请求&lt;/font&gt;" style="edgeLabel;html=1;align=center;verticalAlign=middle;resizable=0;points=[];" vertex="1" connectable="0" parent="GXVeMxoapCB2V32r6AwR-12">
          <mxGeometry x="-0.1689" y="-4" relative="1" as="geometry">
            <mxPoint as="offset" />
          </mxGeometry>
        </mxCell>
        <mxCell id="GXVeMxoapCB2V32r6AwR-14" value="" style="endArrow=none;html=1;rounded=0;dashed=1;" edge="1" parent="1" target="GXVeMxoapCB2V32r6AwR-15">
          <mxGeometry width="50" height="50" relative="1" as="geometry">
            <mxPoint x="499.40999999999997" y="2210" as="sourcePoint" />
            <mxPoint x="499.40999999999997" y="180" as="targetPoint" />
          </mxGeometry>
        </mxCell>
        <mxCell id="GXVeMxoapCB2V32r6AwR-15" value="" style="rounded=0;whiteSpace=wrap;html=1;" vertex="1" parent="1">
          <mxGeometry x="490" y="230" width="20" height="60" as="geometry" />
        </mxCell>
        <mxCell id="GXVeMxoapCB2V32r6AwR-16" value="" style="endArrow=none;html=1;rounded=0;dashed=1;" edge="1" parent="1" target="GXVeMxoapCB2V32r6AwR-17" source="GXVeMxoapCB2V32r6AwR-73">
          <mxGeometry width="50" height="50" relative="1" as="geometry">
            <mxPoint x="694.41" y="2210" as="sourcePoint" />
            <mxPoint x="694.41" y="180" as="targetPoint" />
          </mxGeometry>
        </mxCell>
        <mxCell id="GXVeMxoapCB2V32r6AwR-17" value="" style="rounded=0;whiteSpace=wrap;html=1;" vertex="1" parent="1">
          <mxGeometry x="685" y="240" width="20" height="40" as="geometry" />
        </mxCell>
        <mxCell id="GXVeMxoapCB2V32r6AwR-18" value="" style="endArrow=classic;html=1;rounded=0;" edge="1" parent="1">
          <mxGeometry width="50" height="50" relative="1" as="geometry">
            <mxPoint x="510" y="240" as="sourcePoint" />
            <mxPoint x="690" y="240" as="targetPoint" />
            <Array as="points">
              <mxPoint x="660" y="240" />
              <mxPoint x="670" y="240" />
              <mxPoint x="690" y="240" />
            </Array>
          </mxGeometry>
        </mxCell>
        <mxCell id="GXVeMxoapCB2V32r6AwR-19" value="&lt;font style=&quot;font-size: 15px;&quot;&gt;查询课程信息&lt;/font&gt;" style="edgeLabel;html=1;align=center;verticalAlign=middle;resizable=0;points=[];" vertex="1" connectable="0" parent="GXVeMxoapCB2V32r6AwR-18">
          <mxGeometry x="-0.1689" y="-4" relative="1" as="geometry">
            <mxPoint as="offset" />
          </mxGeometry>
        </mxCell>
        <mxCell id="GXVeMxoapCB2V32r6AwR-20" value="" style="endArrow=classic;html=1;rounded=0;exitX=0;exitY=1;exitDx=0;exitDy=0;entryX=1.033;entryY=0.819;entryDx=0;entryDy=0;entryPerimeter=0;" edge="1" parent="1" source="GXVeMxoapCB2V32r6AwR-17" target="GXVeMxoapCB2V32r6AwR-15">
          <mxGeometry width="50" height="50" relative="1" as="geometry">
            <mxPoint x="540" y="330" as="sourcePoint" />
            <mxPoint x="590" y="280" as="targetPoint" />
          </mxGeometry>
        </mxCell>
        <mxCell id="GXVeMxoapCB2V32r6AwR-21" value="&lt;font style=&quot;font-size: 15px;&quot;&gt;返回查询结果&lt;/font&gt;" style="edgeLabel;html=1;align=center;verticalAlign=middle;resizable=0;points=[];" vertex="1" connectable="0" parent="GXVeMxoapCB2V32r6AwR-20">
          <mxGeometry x="-0.0478" y="-1" relative="1" as="geometry">
            <mxPoint as="offset" />
          </mxGeometry>
        </mxCell>
        <mxCell id="GXVeMxoapCB2V32r6AwR-22" value="" style="endArrow=classic;html=1;rounded=0;entryX=1.033;entryY=0.819;entryDx=0;entryDy=0;entryPerimeter=0;" edge="1" parent="1">
          <mxGeometry width="50" height="50" relative="1" as="geometry">
            <mxPoint x="490" y="290" as="sourcePoint" />
            <mxPoint x="330.34000000000003" y="289.86" as="targetPoint" />
          </mxGeometry>
        </mxCell>
        <mxCell id="GXVeMxoapCB2V32r6AwR-23" value="&lt;font style=&quot;font-size: 15px;&quot;&gt;返回课程列表&lt;/font&gt;" style="edgeLabel;html=1;align=center;verticalAlign=middle;resizable=0;points=[];" vertex="1" connectable="0" parent="GXVeMxoapCB2V32r6AwR-22">
          <mxGeometry x="-0.0478" y="-1" relative="1" as="geometry">
            <mxPoint as="offset" />
          </mxGeometry>
        </mxCell>
        <mxCell id="GXVeMxoapCB2V32r6AwR-24" value="" style="endArrow=classic;html=1;rounded=0;entryX=1.033;entryY=0.819;entryDx=0;entryDy=0;entryPerimeter=0;" edge="1" parent="1">
          <mxGeometry width="50" height="50" relative="1" as="geometry">
            <mxPoint x="310" y="300" as="sourcePoint" />
            <mxPoint x="160.00000000000003" y="300" as="targetPoint" />
          </mxGeometry>
        </mxCell>
        <mxCell id="GXVeMxoapCB2V32r6AwR-25" value="&lt;font style=&quot;font-size: 15px;&quot;&gt;显示课程列表&lt;/font&gt;" style="edgeLabel;html=1;align=center;verticalAlign=middle;resizable=0;points=[];" vertex="1" connectable="0" parent="GXVeMxoapCB2V32r6AwR-24">
          <mxGeometry x="-0.0478" y="-1" relative="1" as="geometry">
            <mxPoint as="offset" />
          </mxGeometry>
        </mxCell>
        <mxCell id="GXVeMxoapCB2V32r6AwR-26" value="" style="rounded=0;whiteSpace=wrap;html=1;" vertex="1" parent="1">
          <mxGeometry x="310" y="350" width="20" height="80" as="geometry" />
        </mxCell>
        <mxCell id="GXVeMxoapCB2V32r6AwR-27" value="" style="endArrow=classic;html=1;rounded=0;" edge="1" parent="1">
          <mxGeometry width="50" height="50" relative="1" as="geometry">
            <mxPoint x="160" y="350" as="sourcePoint" />
            <mxPoint x="310" y="350" as="targetPoint" />
            <Array as="points">
              <mxPoint x="310" y="350" />
            </Array>
          </mxGeometry>
        </mxCell>
        <mxCell id="GXVeMxoapCB2V32r6AwR-28" value="&lt;span style=&quot;font-size: 15px;&quot;&gt;选择课程&lt;/span&gt;" style="edgeLabel;html=1;align=center;verticalAlign=middle;resizable=0;points=[];" vertex="1" connectable="0" parent="GXVeMxoapCB2V32r6AwR-27">
          <mxGeometry x="-0.1689" y="-4" relative="1" as="geometry">
            <mxPoint as="offset" />
          </mxGeometry>
        </mxCell>
        <mxCell id="GXVeMxoapCB2V32r6AwR-29" value="" style="endArrow=classic;html=1;rounded=0;entryX=0;entryY=0;entryDx=0;entryDy=0;" edge="1" parent="1" target="GXVeMxoapCB2V32r6AwR-31">
          <mxGeometry width="50" height="50" relative="1" as="geometry">
            <mxPoint x="330" y="360" as="sourcePoint" />
            <mxPoint x="480" y="360" as="targetPoint" />
            <Array as="points">
              <mxPoint x="480" y="360" />
              <mxPoint x="490" y="360" />
            </Array>
          </mxGeometry>
        </mxCell>
        <mxCell id="GXVeMxoapCB2V32r6AwR-30" value="&lt;font style=&quot;font-size: 15px;&quot;&gt;上传请求&lt;/font&gt;" style="edgeLabel;html=1;align=center;verticalAlign=middle;resizable=0;points=[];" vertex="1" connectable="0" parent="GXVeMxoapCB2V32r6AwR-29">
          <mxGeometry x="-0.1689" y="-4" relative="1" as="geometry">
            <mxPoint as="offset" />
          </mxGeometry>
        </mxCell>
        <mxCell id="GXVeMxoapCB2V32r6AwR-31" value="" style="rounded=0;whiteSpace=wrap;html=1;" vertex="1" parent="1">
          <mxGeometry x="490" y="360" width="20" height="60" as="geometry" />
        </mxCell>
        <mxCell id="GXVeMxoapCB2V32r6AwR-32" value="" style="rounded=0;whiteSpace=wrap;html=1;" vertex="1" parent="1">
          <mxGeometry x="685" y="370" width="20" height="40" as="geometry" />
        </mxCell>
        <mxCell id="GXVeMxoapCB2V32r6AwR-33" value="" style="endArrow=classic;html=1;rounded=0;" edge="1" parent="1">
          <mxGeometry width="50" height="50" relative="1" as="geometry">
            <mxPoint x="510" y="370" as="sourcePoint" />
            <mxPoint x="690" y="370" as="targetPoint" />
            <Array as="points">
              <mxPoint x="660" y="370" />
              <mxPoint x="670" y="370" />
              <mxPoint x="690" y="370" />
            </Array>
          </mxGeometry>
        </mxCell>
        <mxCell id="GXVeMxoapCB2V32r6AwR-34" value="&lt;font style=&quot;font-size: 15px;&quot;&gt;查询学生名单&lt;/font&gt;" style="edgeLabel;html=1;align=center;verticalAlign=middle;resizable=0;points=[];" vertex="1" connectable="0" parent="GXVeMxoapCB2V32r6AwR-33">
          <mxGeometry x="-0.1689" y="-4" relative="1" as="geometry">
            <mxPoint as="offset" />
          </mxGeometry>
        </mxCell>
        <mxCell id="GXVeMxoapCB2V32r6AwR-35" value="" style="endArrow=classic;html=1;rounded=0;exitX=0;exitY=1;exitDx=0;exitDy=0;entryX=1.033;entryY=0.819;entryDx=0;entryDy=0;entryPerimeter=0;" edge="1" parent="1" source="GXVeMxoapCB2V32r6AwR-32" target="GXVeMxoapCB2V32r6AwR-31">
          <mxGeometry width="50" height="50" relative="1" as="geometry">
            <mxPoint x="540" y="460" as="sourcePoint" />
            <mxPoint x="590" y="410" as="targetPoint" />
          </mxGeometry>
        </mxCell>
        <mxCell id="GXVeMxoapCB2V32r6AwR-36" value="&lt;font style=&quot;font-size: 15px;&quot;&gt;返回查询结果&lt;/font&gt;" style="edgeLabel;html=1;align=center;verticalAlign=middle;resizable=0;points=[];" vertex="1" connectable="0" parent="GXVeMxoapCB2V32r6AwR-35">
          <mxGeometry x="-0.0478" y="-1" relative="1" as="geometry">
            <mxPoint as="offset" />
          </mxGeometry>
        </mxCell>
        <mxCell id="GXVeMxoapCB2V32r6AwR-37" value="" style="endArrow=classic;html=1;rounded=0;entryX=1.033;entryY=0.819;entryDx=0;entryDy=0;entryPerimeter=0;" edge="1" parent="1">
          <mxGeometry width="50" height="50" relative="1" as="geometry">
            <mxPoint x="490" y="420" as="sourcePoint" />
            <mxPoint x="330.34000000000003" y="419.86" as="targetPoint" />
          </mxGeometry>
        </mxCell>
        <mxCell id="GXVeMxoapCB2V32r6AwR-38" value="&lt;font style=&quot;font-size: 15px;&quot;&gt;返回查询结果&lt;/font&gt;" style="edgeLabel;html=1;align=center;verticalAlign=middle;resizable=0;points=[];" vertex="1" connectable="0" parent="GXVeMxoapCB2V32r6AwR-37">
          <mxGeometry x="-0.0478" y="-1" relative="1" as="geometry">
            <mxPoint as="offset" />
          </mxGeometry>
        </mxCell>
        <mxCell id="GXVeMxoapCB2V32r6AwR-39" value="" style="endArrow=classic;html=1;rounded=0;entryX=1.033;entryY=0.819;entryDx=0;entryDy=0;entryPerimeter=0;" edge="1" parent="1">
          <mxGeometry width="50" height="50" relative="1" as="geometry">
            <mxPoint x="310" y="430" as="sourcePoint" />
            <mxPoint x="160.00000000000003" y="430" as="targetPoint" />
          </mxGeometry>
        </mxCell>
        <mxCell id="GXVeMxoapCB2V32r6AwR-40" value="&lt;font style=&quot;font-size: 15px;&quot;&gt;显示学生名单&lt;/font&gt;" style="edgeLabel;html=1;align=center;verticalAlign=middle;resizable=0;points=[];" vertex="1" connectable="0" parent="GXVeMxoapCB2V32r6AwR-39">
          <mxGeometry x="-0.0478" y="-1" relative="1" as="geometry">
            <mxPoint as="offset" />
          </mxGeometry>
        </mxCell>
        <mxCell id="GXVeMxoapCB2V32r6AwR-42" value="" style="rounded=0;whiteSpace=wrap;html=1;" vertex="1" parent="1">
          <mxGeometry x="310" y="610" width="20" height="250" as="geometry" />
        </mxCell>
        <mxCell id="GXVeMxoapCB2V32r6AwR-43" value="" style="endArrow=classic;html=1;rounded=0;" edge="1" parent="1">
          <mxGeometry width="50" height="50" relative="1" as="geometry">
            <mxPoint x="160" y="610" as="sourcePoint" />
            <mxPoint x="310" y="610" as="targetPoint" />
            <Array as="points">
              <mxPoint x="310" y="610" />
            </Array>
          </mxGeometry>
        </mxCell>
        <mxCell id="GXVeMxoapCB2V32r6AwR-44" value="&lt;span style=&quot;font-size: 15px;&quot;&gt;输入成绩&lt;/span&gt;" style="edgeLabel;html=1;align=center;verticalAlign=middle;resizable=0;points=[];" vertex="1" connectable="0" parent="GXVeMxoapCB2V32r6AwR-43">
          <mxGeometry x="-0.1689" y="-4" relative="1" as="geometry">
            <mxPoint as="offset" />
          </mxGeometry>
        </mxCell>
        <mxCell id="GXVeMxoapCB2V32r6AwR-45" value="" style="endArrow=classic;html=1;rounded=0;entryX=0;entryY=0;entryDx=0;entryDy=0;" edge="1" parent="1" target="GXVeMxoapCB2V32r6AwR-47">
          <mxGeometry width="50" height="50" relative="1" as="geometry">
            <mxPoint x="330" y="620" as="sourcePoint" />
            <mxPoint x="480" y="620" as="targetPoint" />
            <Array as="points">
              <mxPoint x="480" y="620" />
              <mxPoint x="490" y="620" />
            </Array>
          </mxGeometry>
        </mxCell>
        <mxCell id="GXVeMxoapCB2V32r6AwR-46" value="&lt;font style=&quot;font-size: 15px;&quot;&gt;上传成绩&lt;/font&gt;" style="edgeLabel;html=1;align=center;verticalAlign=middle;resizable=0;points=[];" vertex="1" connectable="0" parent="GXVeMxoapCB2V32r6AwR-45">
          <mxGeometry x="-0.1689" y="-4" relative="1" as="geometry">
            <mxPoint as="offset" />
          </mxGeometry>
        </mxCell>
        <mxCell id="GXVeMxoapCB2V32r6AwR-47" value="" style="rounded=0;whiteSpace=wrap;html=1;" vertex="1" parent="1">
          <mxGeometry x="490" y="620" width="20" height="190" as="geometry" />
        </mxCell>
        <mxCell id="GXVeMxoapCB2V32r6AwR-48" value="" style="rounded=0;whiteSpace=wrap;html=1;" vertex="1" parent="1">
          <mxGeometry x="685" y="660" width="20" height="40" as="geometry" />
        </mxCell>
        <mxCell id="GXVeMxoapCB2V32r6AwR-49" value="" style="endArrow=classic;html=1;rounded=0;" edge="1" parent="1">
          <mxGeometry width="50" height="50" relative="1" as="geometry">
            <mxPoint x="510" y="660" as="sourcePoint" />
            <mxPoint x="690" y="660" as="targetPoint" />
            <Array as="points">
              <mxPoint x="660" y="660" />
              <mxPoint x="670" y="660" />
              <mxPoint x="690" y="660" />
            </Array>
          </mxGeometry>
        </mxCell>
        <mxCell id="GXVeMxoapCB2V32r6AwR-50" value="&lt;font style=&quot;font-size: 15px;&quot;&gt;上传成绩&lt;/font&gt;" style="edgeLabel;html=1;align=center;verticalAlign=middle;resizable=0;points=[];" vertex="1" connectable="0" parent="GXVeMxoapCB2V32r6AwR-49">
          <mxGeometry x="-0.1689" y="-4" relative="1" as="geometry">
            <mxPoint as="offset" />
          </mxGeometry>
        </mxCell>
        <mxCell id="GXVeMxoapCB2V32r6AwR-51" value="" style="endArrow=classic;html=1;rounded=0;exitX=0;exitY=1;exitDx=0;exitDy=0;entryX=1.033;entryY=0.819;entryDx=0;entryDy=0;entryPerimeter=0;" edge="1" parent="1" source="GXVeMxoapCB2V32r6AwR-48">
          <mxGeometry width="50" height="50" relative="1" as="geometry">
            <mxPoint x="540" y="750" as="sourcePoint" />
            <mxPoint x="510.65999999999985" y="699.1400000000001" as="targetPoint" />
          </mxGeometry>
        </mxCell>
        <mxCell id="GXVeMxoapCB2V32r6AwR-52" value="&lt;font style=&quot;font-size: 15px;&quot;&gt;返回结果&lt;/font&gt;" style="edgeLabel;html=1;align=center;verticalAlign=middle;resizable=0;points=[];" vertex="1" connectable="0" parent="GXVeMxoapCB2V32r6AwR-51">
          <mxGeometry x="-0.0478" y="-1" relative="1" as="geometry">
            <mxPoint as="offset" />
          </mxGeometry>
        </mxCell>
        <mxCell id="GXVeMxoapCB2V32r6AwR-53" value="" style="endArrow=classic;html=1;rounded=0;entryX=1.033;entryY=0.819;entryDx=0;entryDy=0;entryPerimeter=0;" edge="1" parent="1">
          <mxGeometry width="50" height="50" relative="1" as="geometry">
            <mxPoint x="489.66" y="810.14" as="sourcePoint" />
            <mxPoint x="330.00000000000006" y="810" as="targetPoint" />
          </mxGeometry>
        </mxCell>
        <mxCell id="GXVeMxoapCB2V32r6AwR-54" value="&lt;font style=&quot;font-size: 15px;&quot;&gt;返回结果&lt;/font&gt;" style="edgeLabel;html=1;align=center;verticalAlign=middle;resizable=0;points=[];" vertex="1" connectable="0" parent="GXVeMxoapCB2V32r6AwR-53">
          <mxGeometry x="-0.0478" y="-1" relative="1" as="geometry">
            <mxPoint as="offset" />
          </mxGeometry>
        </mxCell>
        <mxCell id="GXVeMxoapCB2V32r6AwR-55" value="" style="endArrow=classic;html=1;rounded=0;entryX=1.033;entryY=0.819;entryDx=0;entryDy=0;entryPerimeter=0;" edge="1" parent="1">
          <mxGeometry width="50" height="50" relative="1" as="geometry">
            <mxPoint x="310" y="670" as="sourcePoint" />
            <mxPoint x="160.00000000000003" y="670" as="targetPoint" />
          </mxGeometry>
        </mxCell>
        <mxCell id="GXVeMxoapCB2V32r6AwR-56" value="&lt;font style=&quot;font-size: 15px;&quot;&gt;显示&lt;/font&gt;有效性验证结果" style="edgeLabel;html=1;align=center;verticalAlign=middle;resizable=0;points=[];" vertex="1" connectable="0" parent="GXVeMxoapCB2V32r6AwR-55">
          <mxGeometry x="-0.0478" y="-1" relative="1" as="geometry">
            <mxPoint as="offset" />
          </mxGeometry>
        </mxCell>
        <mxCell id="GXVeMxoapCB2V32r6AwR-57" value="" style="endArrow=classic;html=1;rounded=0;entryX=1.033;entryY=0.819;entryDx=0;entryDy=0;entryPerimeter=0;" edge="1" parent="1">
          <mxGeometry width="50" height="50" relative="1" as="geometry">
            <mxPoint x="490" y="649.78" as="sourcePoint" />
            <mxPoint x="330.34000000000003" y="649.64" as="targetPoint" />
          </mxGeometry>
        </mxCell>
        <mxCell id="GXVeMxoapCB2V32r6AwR-58" value="&lt;font style=&quot;font-size: 15px;&quot;&gt;返回有效性验证结果&lt;/font&gt;" style="edgeLabel;html=1;align=center;verticalAlign=middle;resizable=0;points=[];" vertex="1" connectable="0" parent="GXVeMxoapCB2V32r6AwR-57">
          <mxGeometry x="-0.0478" y="-1" relative="1" as="geometry">
            <mxPoint as="offset" />
          </mxGeometry>
        </mxCell>
        <mxCell id="GXVeMxoapCB2V32r6AwR-68" value="" style="endArrow=classic;html=1;rounded=0;entryX=0;entryY=0;entryDx=0;entryDy=0;" edge="1" parent="1" target="GXVeMxoapCB2V32r6AwR-73">
          <mxGeometry width="50" height="50" relative="1" as="geometry">
            <mxPoint x="510" y="760" as="sourcePoint" />
            <mxPoint x="680" y="760" as="targetPoint" />
            <Array as="points">
              <mxPoint x="660" y="760" />
              <mxPoint x="670" y="760" />
            </Array>
          </mxGeometry>
        </mxCell>
        <mxCell id="GXVeMxoapCB2V32r6AwR-69" value="&lt;font style=&quot;font-size: 15px;&quot;&gt;修改数据统计&lt;/font&gt;" style="edgeLabel;html=1;align=center;verticalAlign=middle;resizable=0;points=[];" vertex="1" connectable="0" parent="GXVeMxoapCB2V32r6AwR-68">
          <mxGeometry x="-0.1689" y="-4" relative="1" as="geometry">
            <mxPoint as="offset" />
          </mxGeometry>
        </mxCell>
        <mxCell id="GXVeMxoapCB2V32r6AwR-70" value="" style="endArrow=classic;html=1;rounded=0;exitX=0;exitY=1;exitDx=0;exitDy=0;entryX=1.033;entryY=0.819;entryDx=0;entryDy=0;entryPerimeter=0;" edge="1" parent="1" source="GXVeMxoapCB2V32r6AwR-73">
          <mxGeometry width="50" height="50" relative="1" as="geometry">
            <mxPoint x="540" y="850" as="sourcePoint" />
            <mxPoint x="510.65999999999985" y="799.1400000000001" as="targetPoint" />
          </mxGeometry>
        </mxCell>
        <mxCell id="GXVeMxoapCB2V32r6AwR-71" value="&lt;font style=&quot;font-size: 15px;&quot;&gt;返回结果&lt;/font&gt;" style="edgeLabel;html=1;align=center;verticalAlign=middle;resizable=0;points=[];" vertex="1" connectable="0" parent="GXVeMxoapCB2V32r6AwR-70">
          <mxGeometry x="-0.0478" y="-1" relative="1" as="geometry">
            <mxPoint as="offset" />
          </mxGeometry>
        </mxCell>
        <mxCell id="GXVeMxoapCB2V32r6AwR-74" value="" style="endArrow=classic;html=1;rounded=0;entryX=1.033;entryY=0.819;entryDx=0;entryDy=0;entryPerimeter=0;" edge="1" parent="1">
          <mxGeometry width="50" height="50" relative="1" as="geometry">
            <mxPoint x="310" y="860" as="sourcePoint" />
            <mxPoint x="160.00000000000003" y="860" as="targetPoint" />
          </mxGeometry>
        </mxCell>
        <mxCell id="GXVeMxoapCB2V32r6AwR-75" value="&lt;font style=&quot;font-size: 15px;&quot;&gt;显示结果&lt;/font&gt;" style="edgeLabel;html=1;align=center;verticalAlign=middle;resizable=0;points=[];" vertex="1" connectable="0" parent="GXVeMxoapCB2V32r6AwR-74">
          <mxGeometry x="-0.0478" y="-1" relative="1" as="geometry">
            <mxPoint as="offset" />
          </mxGeometry>
        </mxCell>
        <mxCell id="GXVeMxoapCB2V32r6AwR-76" value="" style="rounded=0;whiteSpace=wrap;html=1;" vertex="1" parent="1">
          <mxGeometry x="310" y="490" width="20" height="80" as="geometry" />
        </mxCell>
        <mxCell id="GXVeMxoapCB2V32r6AwR-77" value="" style="endArrow=classic;html=1;rounded=0;" edge="1" parent="1">
          <mxGeometry width="50" height="50" relative="1" as="geometry">
            <mxPoint x="160" y="490" as="sourcePoint" />
            <mxPoint x="310" y="490" as="targetPoint" />
            <Array as="points">
              <mxPoint x="310" y="490" />
            </Array>
          </mxGeometry>
        </mxCell>
        <mxCell id="GXVeMxoapCB2V32r6AwR-78" value="&lt;span style=&quot;font-size: 15px;&quot;&gt;选择学生&lt;/span&gt;" style="edgeLabel;html=1;align=center;verticalAlign=middle;resizable=0;points=[];" vertex="1" connectable="0" parent="GXVeMxoapCB2V32r6AwR-77">
          <mxGeometry x="-0.1689" y="-4" relative="1" as="geometry">
            <mxPoint as="offset" />
          </mxGeometry>
        </mxCell>
        <mxCell id="GXVeMxoapCB2V32r6AwR-79" value="" style="endArrow=classic;html=1;rounded=0;entryX=0;entryY=0;entryDx=0;entryDy=0;" edge="1" target="GXVeMxoapCB2V32r6AwR-81" parent="1">
          <mxGeometry width="50" height="50" relative="1" as="geometry">
            <mxPoint x="330" y="500" as="sourcePoint" />
            <mxPoint x="480" y="500" as="targetPoint" />
            <Array as="points">
              <mxPoint x="480" y="500" />
              <mxPoint x="490" y="500" />
            </Array>
          </mxGeometry>
        </mxCell>
        <mxCell id="GXVeMxoapCB2V32r6AwR-80" value="&lt;font style=&quot;font-size: 15px;&quot;&gt;上传请求&lt;/font&gt;" style="edgeLabel;html=1;align=center;verticalAlign=middle;resizable=0;points=[];" vertex="1" connectable="0" parent="GXVeMxoapCB2V32r6AwR-79">
          <mxGeometry x="-0.1689" y="-4" relative="1" as="geometry">
            <mxPoint as="offset" />
          </mxGeometry>
        </mxCell>
        <mxCell id="GXVeMxoapCB2V32r6AwR-81" value="" style="rounded=0;whiteSpace=wrap;html=1;" vertex="1" parent="1">
          <mxGeometry x="490" y="500" width="20" height="60" as="geometry" />
        </mxCell>
        <mxCell id="GXVeMxoapCB2V32r6AwR-82" value="" style="rounded=0;whiteSpace=wrap;html=1;" vertex="1" parent="1">
          <mxGeometry x="685" y="510" width="20" height="40" as="geometry" />
        </mxCell>
        <mxCell id="GXVeMxoapCB2V32r6AwR-83" value="" style="endArrow=classic;html=1;rounded=0;" edge="1" parent="1">
          <mxGeometry width="50" height="50" relative="1" as="geometry">
            <mxPoint x="510" y="510" as="sourcePoint" />
            <mxPoint x="690" y="510" as="targetPoint" />
            <Array as="points">
              <mxPoint x="660" y="510" />
              <mxPoint x="670" y="510" />
              <mxPoint x="690" y="510" />
            </Array>
          </mxGeometry>
        </mxCell>
        <mxCell id="GXVeMxoapCB2V32r6AwR-84" value="&lt;font style=&quot;font-size: 15px;&quot;&gt;查询学生成绩信息&lt;/font&gt;" style="edgeLabel;html=1;align=center;verticalAlign=middle;resizable=0;points=[];" vertex="1" connectable="0" parent="GXVeMxoapCB2V32r6AwR-83">
          <mxGeometry x="-0.1689" y="-4" relative="1" as="geometry">
            <mxPoint as="offset" />
          </mxGeometry>
        </mxCell>
        <mxCell id="GXVeMxoapCB2V32r6AwR-85" value="" style="endArrow=classic;html=1;rounded=0;exitX=0;exitY=1;exitDx=0;exitDy=0;entryX=1.033;entryY=0.819;entryDx=0;entryDy=0;entryPerimeter=0;" edge="1" source="GXVeMxoapCB2V32r6AwR-82" target="GXVeMxoapCB2V32r6AwR-81" parent="1">
          <mxGeometry width="50" height="50" relative="1" as="geometry">
            <mxPoint x="540" y="600" as="sourcePoint" />
            <mxPoint x="590" y="550" as="targetPoint" />
          </mxGeometry>
        </mxCell>
        <mxCell id="GXVeMxoapCB2V32r6AwR-86" value="&lt;font style=&quot;font-size: 15px;&quot;&gt;返回查询结果&lt;/font&gt;" style="edgeLabel;html=1;align=center;verticalAlign=middle;resizable=0;points=[];" vertex="1" connectable="0" parent="GXVeMxoapCB2V32r6AwR-85">
          <mxGeometry x="-0.0478" y="-1" relative="1" as="geometry">
            <mxPoint as="offset" />
          </mxGeometry>
        </mxCell>
        <mxCell id="GXVeMxoapCB2V32r6AwR-87" value="" style="endArrow=classic;html=1;rounded=0;entryX=1.033;entryY=0.819;entryDx=0;entryDy=0;entryPerimeter=0;" edge="1" parent="1">
          <mxGeometry width="50" height="50" relative="1" as="geometry">
            <mxPoint x="490" y="560" as="sourcePoint" />
            <mxPoint x="330.34000000000003" y="559.86" as="targetPoint" />
          </mxGeometry>
        </mxCell>
        <mxCell id="GXVeMxoapCB2V32r6AwR-88" value="&lt;font style=&quot;font-size: 15px;&quot;&gt;返回查询结果&lt;/font&gt;" style="edgeLabel;html=1;align=center;verticalAlign=middle;resizable=0;points=[];" vertex="1" connectable="0" parent="GXVeMxoapCB2V32r6AwR-87">
          <mxGeometry x="-0.0478" y="-1" relative="1" as="geometry">
            <mxPoint as="offset" />
          </mxGeometry>
        </mxCell>
        <mxCell id="GXVeMxoapCB2V32r6AwR-89" value="" style="endArrow=classic;html=1;rounded=0;entryX=1.033;entryY=0.819;entryDx=0;entryDy=0;entryPerimeter=0;" edge="1" parent="1">
          <mxGeometry width="50" height="50" relative="1" as="geometry">
            <mxPoint x="310" y="570" as="sourcePoint" />
            <mxPoint x="160.00000000000003" y="570" as="targetPoint" />
          </mxGeometry>
        </mxCell>
        <mxCell id="GXVeMxoapCB2V32r6AwR-90" value="&lt;font style=&quot;font-size: 15px;&quot;&gt;显示学生成绩信息&lt;/font&gt;" style="edgeLabel;html=1;align=center;verticalAlign=middle;resizable=0;points=[];" vertex="1" connectable="0" parent="GXVeMxoapCB2V32r6AwR-89">
          <mxGeometry x="-0.0478" y="-1" relative="1" as="geometry">
            <mxPoint as="offset" />
          </mxGeometry>
        </mxCell>
        <mxCell id="NXMiHjQpHKoOg1i8Bz0O-2" value="" style="endArrow=none;html=1;rounded=0;dashed=1;" edge="1" parent="1" target="GXVeMxoapCB2V32r6AwR-73">
          <mxGeometry width="50" height="50" relative="1" as="geometry">
            <mxPoint x="694.41" y="2210" as="sourcePoint" />
            <mxPoint x="695" y="280" as="targetPoint" />
          </mxGeometry>
        </mxCell>
        <mxCell id="GXVeMxoapCB2V32r6AwR-73" value="" style="rounded=0;whiteSpace=wrap;html=1;" vertex="1" parent="1">
          <mxGeometry x="685" y="760.3199999999999" width="20" height="40" as="geometry" />
        </mxCell>
      </root>
    </mxGraphModel>
  </diagram>
</mxfile>
